<svg xmlns="http://www.w3.org/2000/svg" width="160" height="50" viewBox="0 0 160 50">
    <g fill="none">
        <rect width="160" height="50" rx="4"/>
        <path fill="#6A859C" d="M61.099 38.796h-2.945l-1.614-5.012h-5.607l-1.537 5.012h-2.868l5.556-17.064h3.432l5.583 17.064zm-5.045-7.115l-1.459-4.456c-.154-.455-.444-1.527-.87-3.215h-.052c-.17.726-.444 1.798-.82 3.215l-1.433 4.456h4.634zm19.333.812c0 2.092-.572 3.746-1.716 4.96-1.025 1.082-2.297 1.621-3.816 1.621-1.639 0-2.816-.582-3.534-1.746h-.051v6.482h-2.765V30.542c0-1.315-.035-2.666-.103-4.05h2.432l.154 1.95h.052c.922-1.47 2.321-2.203 4.2-2.203 1.467 0 2.693.573 3.673 1.72.983 1.15 1.474 2.66 1.474 4.534zm-2.817.1c0-1.198-.273-2.185-.82-2.963-.598-.81-1.4-1.215-2.407-1.215-.682 0-1.302.226-1.856.67-.553.445-.937 1.067-1.088 1.761-.076.272-.119.552-.128.834v2.051c0 .895.277 1.65.832 2.267.555.617 1.277.925 2.164.925 1.041 0 1.852-.398 2.431-1.19.581-.794.872-1.84.872-3.14zm17.13-.1c0 2.092-.572 3.746-1.717 4.96-1.023 1.082-2.295 1.621-3.814 1.621-1.64 0-2.817-.582-3.533-1.746h-.051v6.482H77.82V30.542c0-1.315-.035-2.666-.103-4.05h2.432l.154 1.95h.052c.92-1.47 2.32-2.203 4.2-2.203 1.466 0 2.692.573 3.675 1.72.979 1.15 1.47 2.66 1.47 4.534zm-2.817.1c0-1.198-.273-2.185-.82-2.963-.598-.81-1.398-1.215-2.406-1.215-.684 0-1.302.226-1.857.67-.555.45-.917 1.035-1.087 1.761-.075.272-.118.552-.128.834v2.051c0 .895.277 1.65.83 2.267.555.616 1.276.925 2.165.925 1.042 0 1.852-.398 2.432-1.19.581-.794.871-1.84.871-3.14zm18.821 1.417c0 1.452-.51 2.633-1.533 3.545-1.124.996-2.69 1.494-4.701 1.494-1.857 0-3.346-.354-4.473-1.063l.64-2.279c1.207.724 2.59 1.101 3.997 1.09 1.042 0 1.852-.233 2.435-.697.58-.465.869-1.088.869-1.865 0-.692-.24-1.276-.718-1.749-.476-.473-1.27-.913-2.38-1.32-3.022-1.114-4.532-2.746-4.532-4.892 0-1.403.53-2.553 1.589-3.449 1.055-.896 2.464-1.343 4.225-1.343 1.57 0 2.875.27 3.917.81l-.692 2.229c-.972-.524-2.072-.785-3.303-.785-.973 0-1.733.237-2.277.709-.46.422-.691.936-.691 1.545 0 .675.263 1.232.792 1.67.46.406 1.297.845 2.51 1.318 1.486.59 2.576 1.282 3.278 2.075.699.79 1.048 1.778 1.048 2.958v-.001zm9.142-5.467h-3.048v5.974c0 1.52.537 2.279 1.613 2.279.494 0 .904-.043 1.228-.127l.077 2.076c-.545.201-1.262.302-2.15.302-1.092 0-1.946-.33-2.562-.987-.613-.659-.922-1.764-.922-3.317V28.54h-1.815v-2.052h1.815v-2.253l2.716-.81v3.063h3.048V28.543zm13.75 4c0 1.89-.547 3.444-1.639 4.658-1.145 1.25-2.665 1.873-4.56 1.873-1.826 0-3.28-.598-4.364-1.796s-1.626-2.71-1.626-4.532c0-1.906.558-3.468 1.677-4.682 1.116-1.216 2.623-1.824 4.518-1.824 1.826 0 3.296.599 4.404 1.798 1.061 1.163 1.59 2.664 1.59 4.505zm-2.868.088c0-1.135-.245-2.108-.742-2.92-.58-.982-1.409-1.472-2.482-1.472-1.112 0-1.956.491-2.536 1.472-.496.813-.742 1.802-.742 2.971 0 1.135.246 2.108.742 2.919.598.982 1.433 1.472 2.511 1.472 1.056 0 1.884-.5 2.482-1.498.51-.827.767-1.81.767-2.944zm11.856-3.735c-.288-.052-.58-.077-.872-.076-.972 0-1.725.363-2.254 1.09-.46.641-.691 1.452-.691 2.43v6.456h-2.764l.026-8.43c0-1.418-.035-2.709-.103-3.873h2.408l.101 2.354h.077c.291-.81.752-1.46 1.382-1.949.616-.44 1.281-.66 1.999-.66.255 0 .486.019.69.05v2.608h.001zm12.366 3.166c0 .49-.033.902-.102 1.24h-8.294c.032 1.215.433 2.145 1.203 2.786.699.573 1.603.86 2.713.86 1.228 0 2.349-.193 3.356-.582l.434 1.898c-1.178.508-2.568.76-4.172.76-1.93 0-3.445-.561-4.547-1.683-1.1-1.122-1.651-2.629-1.651-4.519 0-1.855.512-3.4 1.538-4.633 1.074-1.315 2.525-1.973 4.35-1.973 1.794 0 3.152.658 4.074 1.973.73 1.045 1.098 2.338 1.098 3.873zm-2.637-.71c.018-.81-.162-1.51-.537-2.101-.478-.76-1.214-1.14-2.203-1.14-.904 0-1.64.37-2.201 1.114-.46.591-.734 1.3-.818 2.126h5.759v.002-.001zM55.14 11.234c0 1.509-.458 2.645-1.372 3.408-.847.704-2.05 1.057-3.61 1.057-.773 0-1.434-.034-1.988-.1V7.352c.723-.115 1.5-.174 2.341-.174 1.485 0 2.604.32 3.359.958.846.722 1.27 1.754 1.27 3.098zm-1.433.037c0-.978-.262-1.729-.786-2.252-.524-.522-1.29-.783-2.297-.783-.428 0-.792.028-1.095.087v6.27c.168.025.474.036.919.036 1.04 0 1.842-.286 2.408-.858.565-.571.85-1.405.85-2.5h.001zm9.031 1.281c0 .93-.268 1.691-.805 2.289-.563.614-1.309.92-2.24.92-.897 0-1.612-.293-2.145-.883-.532-.589-.798-1.331-.798-2.226 0-.936.274-1.704.824-2.3.55-.597 1.289-.895 2.22-.895.898 0 1.619.293 2.165.882.518.572.78 1.31.78 2.213h-.001zm-1.41.044c0-.558-.121-1.037-.364-1.435-.285-.482-.691-.723-1.22-.723-.545 0-.96.24-1.245.723-.244.398-.365.884-.365 1.459 0 .558.122 1.036.365 1.435.294.482.704.723 1.233.723.519 0 .926-.245 1.219-.736.252-.407.377-.889.377-1.446zM72.926 9.58l-1.912 6.044h-1.245L68.976 13c-.197-.642-.361-1.293-.491-1.952h-.025c-.117.662-.282 1.314-.492 1.952l-.841 2.625h-1.26L64.07 9.58h1.396l.692 2.873c.167.68.304 1.327.415 1.94h.024c.102-.505.269-1.149.505-1.927l.867-2.885h1.108l.831 2.824c.201.688.365 1.351.49 1.99h.038c.092-.622.231-1.285.415-1.99l.742-2.824h1.334V9.58h-.001zm7.046 6.044h-1.359v-3.462c0-1.067-.41-1.6-1.232-1.6-.403 0-.729.146-.982.44-.248.287-.383.656-.377 1.036v3.585h-1.359v-4.316c0-.531-.017-1.107-.05-1.73h1.195l.064.945h.037c.158-.293.395-.536.704-.73.369-.225.781-.34 1.233-.34.57 0 1.045.183 1.422.548.47.448.704 1.116.704 2.003v3.621zm3.748 0h-1.357V6.806h1.357v8.818zm8.002-3.072c0 .93-.268 1.691-.805 2.289-.563.614-1.31.92-2.24.92-.899 0-1.613-.293-2.145-.883-.532-.589-.798-1.331-.798-2.226 0-.936.274-1.704.824-2.3.55-.597 1.29-.895 2.219-.895.899 0 1.618.293 2.166.882.518.572.78 1.31.78 2.213h-.001zm-1.41.044c0-.558-.123-1.037-.365-1.435-.284-.482-.692-.723-1.218-.723-.547 0-.962.24-1.246.723-.244.398-.365.884-.365 1.459 0 .558.122 1.036.365 1.435.294.482.704.723 1.233.723.519 0 .925-.245 1.218-.736.253-.407.377-.889.377-1.446h.001zm7.988 3.028h-1.22l-.102-.696h-.037c-.418.555-1.013.833-1.786.833-.577 0-1.044-.183-1.395-.547-.32-.33-.479-.742-.479-1.231 0-.739.311-1.302.938-1.691.625-.39 1.504-.581 2.636-.572v-.113c0-.796-.423-1.194-1.27-1.194-.603 0-1.134.15-1.593.448l-.277-.883c.568-.347 1.27-.521 2.098-.521 1.597 0 2.399.833 2.399 2.5v2.226c0 .604.03 1.085.088 1.441zm-1.411-2.077v-.932c-1.5-.026-2.249.38-2.249 1.218 0 .315.086.551.26.709.184.16.421.245.665.236.298 0 .577-.094.831-.28.312-.216.496-.572.493-.951zm9.134 2.077h-1.206l-.064-.97h-.037c-.386.738-1.042 1.107-1.964 1.107-.737 0-1.35-.285-1.836-.857-.487-.572-.73-1.315-.73-2.226 0-.979.264-1.771.793-2.376.513-.565 1.14-.847 1.887-.847.821 0 1.396.273 1.723.82h.025V6.807h1.36v7.19c0 .588.016 1.13.049 1.628v-.001zm-1.409-2.549v-1.008c0-.174-.013-.315-.037-.423-.073-.317-.246-.602-.492-.814-.252-.219-.576-.336-.909-.33-.507 0-.904.2-1.196.598-.289.399-.435.908-.435 1.53 0 .597.138 1.082.417 1.455.295.398.692.596 1.188.596.446 0 .803-.165 1.074-.497.262-.307.39-.676.39-1.107zm13.033-.523c0 .93-.269 1.691-.806 2.289-.562.614-1.307.92-2.24.92-.895 0-1.61-.293-2.144-.883-.532-.589-.798-1.331-.798-2.226 0-.936.274-1.704.824-2.3.55-.597 1.289-.895 2.221-.895.896 0 1.619.293 2.163.882.52.572.78 1.31.78 2.213zm-1.409.044c0-.558-.122-1.037-.364-1.435-.287-.482-.691-.723-1.22-.723-.545 0-.96.24-1.247.723-.244.398-.364.884-.364 1.459 0 .558.122 1.036.364 1.435.295.482.705.723 1.234.723.518 0 .927-.245 1.22-.736.25-.407.377-.889.377-1.446zm8.717 3.028h-1.358v-3.462c0-1.067-.41-1.6-1.233-1.6-.404 0-.73.146-.98.44-.252.293-.378.64-.378 1.036v3.585h-1.36v-4.316c0-.531-.016-1.107-.049-1.73h1.193l.064.945h.038c.16-.293.395-.536.704-.73.37-.225.78-.34 1.233-.34.57 0 1.044.183 1.422.548.47.448.704 1.116.704 2.003v3.621zm9.147-5.038h-1.497v2.937c0 .746.266 1.12.792 1.12.244 0 .447-.021.606-.064l.035 1.02c-.268.1-.621.15-1.056.15-.536 0-.954-.162-1.256-.485-.304-.323-.454-.867-.454-1.63v-3.048h-.894V9.58h.894V8.472l1.332-.398v1.504h1.496v1.008h.002zm7.195 5.038h-1.36v-3.436c0-1.084-.41-1.626-1.231-1.626-.63 0-1.061.314-1.297.942-.045.157-.066.32-.064.484v3.635h-1.358V6.806h1.358v3.643h.026c.428-.663 1.041-.994 1.836-.994.563 0 1.029.182 1.398.548.46.455.692 1.132.692 2.027v3.594zm7.422-3.308c0 .241-.018.444-.05.61h-4.077c.018.597.213 1.052.59 1.367.345.282.79.423 1.335.423.603 0 1.153-.094 1.648-.286l.213.934c-.58.249-1.262.373-2.052.373-.947 0-1.692-.276-2.232-.827-.542-.551-.81-1.291-.81-2.22 0-.911.25-1.67.754-2.276.527-.646 1.239-.969 2.138-.969.879 0 1.547.323 1.998.97.365.512.545 1.147.545 1.901zm-1.297-.347c.01-.4-.08-.743-.263-1.033-.236-.373-.596-.56-1.082-.56-.443 0-.805.182-1.082.547-.23.304-.37.666-.403 1.046h2.83zM31.524 27.336c-.038-4.078 3.428-6.063 3.587-6.155-1.963-2.788-5.006-3.169-6.075-3.2-2.556-.261-5.035 1.49-6.337 1.49-1.328 0-3.332-1.464-5.493-1.42-2.78.041-5.381 1.609-6.808 4.044-2.944 4.964-.748 12.26 2.072 16.273 1.411 1.965 3.06 4.16 5.218 4.082 2.111-.085 2.9-1.311 5.448-1.311 2.524 0 3.265 1.311 5.466 1.262 2.266-.036 3.692-1.974 5.054-3.957 1.63-2.253 2.285-4.471 2.311-4.585-.053-.018-4.4-1.634-4.443-6.523zm-5.118-14.308c1.136-1.383 1.913-3.264 1.697-5.174-1.643.07-3.699 1.107-4.882 2.46-1.047 1.192-1.983 3.146-1.741 4.983 1.846.135 3.742-.907 4.926-2.269z"/>
    </g>
</svg>
