<svg height="512" viewBox="0 0 512 512" width="512" xmlns="http://www.w3.org/2000/svg" xmlns:xlink="http://www.w3.org/1999/xlink"><linearGradient id="New_Gradient_Swatch_13" gradientUnits="userSpaceOnUse" x1="75.037" x2="423.762" y1="452.963" y2="104.238"><stop offset="0" stop-color="#d46669"/><stop offset="1" stop-color="#dd888a"/></linearGradient><linearGradient id="New_Gradient_Swatch_3" gradientUnits="userSpaceOnUse" x1="426.598" x2="508.615" y1="271.568" y2="189.551"><stop offset=".011" stop-color="#606082"/><stop offset="1" stop-color="#83839e"/></linearGradient><linearGradient id="New_Gradient_Swatch_3-2" x1="247.015" x2="364.102" xlink:href="#New_Gradient_Swatch_3" y1="255.985" y2="138.898"/><linearGradient id="New_Gradient_Swatch_3-3" x1="74.015" x2="188.892" xlink:href="#New_Gradient_Swatch_3" y1="254.985" y2="140.108"/><linearGradient id="New_Gradient_Swatch_3-4" x1="78.075" x2="145.925" xlink:href="#New_Gradient_Swatch_3" y1="401.925" y2="334.075"/><linearGradient id="New_Gradient_Swatch_22" gradientUnits="userSpaceOnUse" x1="95.029" x2="128.971" y1="384.971" y2="351.029"><stop offset=".011" stop-color="#dcdce3"/><stop offset="1" stop-color="#ededf1"/></linearGradient><linearGradient id="New_Gradient_Swatch_3-5" x1="366.075" x2="433.925" xlink:href="#New_Gradient_Swatch_3" y1="401.925" y2="334.075"/><linearGradient id="New_Gradient_Swatch_22-2" x1="383.029" x2="416.971" xlink:href="#New_Gradient_Swatch_22" y1="384.971" y2="351.029"/><g id="_05-bus" data-name="05-bus"><g id="gradient"><path d="m505.984 201.344-28.437-42.656a23.949 23.949 0 0 0 -19.969-10.688h-429.578a24.028 24.028 0 0 0 -24 24v200a24.028 24.028 0 0 0 24 24h456a24.028 24.028 0 0 0 24-24v-164a11.992 11.992 0 0 0 -2.016-6.656z" fill="url(#New_Gradient_Swatch_13)"/><path d="m4 324h504v24h-504z" fill="#f5ddde"/><path d="m482.422 166h-38.422a12 12 0 0 0 -12 12v94a12 12 0 0 0 12 12h60a11.966 11.966 0 0 0 4-.7v-75.3a11.992 11.992 0 0 0 -2.016-6.656z" fill="url(#New_Gradient_Swatch_3)"/><rect fill="url(#New_Gradient_Swatch_3-2)" height="74" rx="12" width="152" x="224" y="166"/><rect fill="url(#New_Gradient_Swatch_3-3)" height="74" rx="12" width="148" x="52" y="166"/><circle cx="112" cy="368" fill="url(#New_Gradient_Swatch_3-4)" r="48"/><circle cx="112" cy="368" fill="url(#New_Gradient_Swatch_22)" r="24"/><circle cx="400" cy="368" fill="url(#New_Gradient_Swatch_3-5)" r="48"/><circle cx="400" cy="368" fill="url(#New_Gradient_Swatch_22-2)" r="24"/></g></g></svg>