<svg xmlns="http://www.w3.org/2000/svg" viewBox="0 0 102.45 102.45"><defs><style>.cls-1{fill:#f4e5d7;}.cls-2{fill:#381911;}.cls-3{fill:#2d150f;}.cls-4,.cls-88,.cls-98{fill:#d78c74;}.cls-5{fill:#e5a185;}.cls-6{opacity:0.58;}.cls-7{fill:#e5a084;}.cls-8{fill:#e59f83;}.cls-9{fill:#e49e83;}.cls-10{fill:#e49d82;}.cls-11{fill:#e49c81;}.cls-12{fill:#e49b80;}.cls-13{fill:#e49a80;}.cls-14{fill:#e3997f;}.cls-15{fill:#e3987e;}.cls-16{fill:#e3977d;}.cls-17{fill:#e3967c;}.cls-18{fill:#e2957c;}.cls-19{fill:#e2947b;}.cls-20{fill:#e2937a;}.cls-21{fill:#e29279;}.cls-22{fill:#e29179;}.cls-23{fill:#e19078;}.cls-24{fill:#e18f77;}.cls-25{fill:#e18e76;}.cls-26{fill:#e18d75;}.cls-27{fill:#e18c75;}.cls-28{fill:#e08b74;}.cls-29{fill:#e08a73;}.cls-30{fill:#e08972;}.cls-31{fill:#e08872;}.cls-32{fill:#df8771;}.cls-33{fill:#df8670;}.cls-34{fill:#df856f;}.cls-35{fill:#df846f;}.cls-36{fill:#df836e;}.cls-37{fill:#de826d;}.cls-38{fill:#de816c;}.cls-39{fill:#de806b;}.cls-40{fill:#de7f6b;}.cls-41{fill:#de7e6a;}.cls-42{fill:#dd7d69;}.cls-43{fill:#dd7c68;}.cls-44{fill:#dd7b68;}.cls-45{fill:#dd7a67;}.cls-46{fill:#dd7a66;}.cls-47{fill:#dc7965;}.cls-48{fill:#dc7864;}.cls-49{fill:#dc7764;}.cls-50{fill:#dc7663;}.cls-51{fill:#db7562;}.cls-52{fill:#db7461;}.cls-53{fill:#db7361;}.cls-54{fill:#db7260;}.cls-55{fill:#db715f;}.cls-56{fill:#da705e;}.cls-57{fill:#da6f5d;}.cls-58{fill:#da6e5d;}.cls-59{fill:#da6d5c;}.cls-60{fill:#da6c5b;}.cls-61{fill:#d96b5a;}.cls-62{fill:#d96a5a;}.cls-63{fill:#d96959;}.cls-64{fill:#d96858;}.cls-65{fill:#d86757;}.cls-66{fill:#d86657;}.cls-67{fill:#d86556;}.cls-68{fill:#d86455;}.cls-69{fill:#d86354;}.cls-70{fill:#d76253;}.cls-71{fill:#d76153;}.cls-72{fill:#d76052;}.cls-73{fill:#d75f51;}.cls-74{fill:#d75e50;}.cls-75{fill:#d65d50;}.cls-76{fill:#d65c4f;}.cls-77{fill:#d65b4e;}.cls-78{fill:#d65a4d;}.cls-79{fill:#d5594c;}.cls-80{fill:#d5584c;}.cls-81{fill:#d5574b;}.cls-82{fill:#d5564a;}.cls-83{fill:#d55549;}.cls-84{fill:#d45449;}.cls-85{fill:#d45348;}.cls-86{fill:#d45247;}.cls-87{opacity:0.65;}.cls-88{opacity:0.54;}.cls-89{fill:#6c332e;}.cls-90,.cls-93,.cls-94{fill:#fff;}.cls-91{fill:#cec3af;opacity:0.16;}.cls-92{opacity:0.36;}.cls-93{opacity:0.6;}.cls-94{opacity:0.1;}.cls-95{fill:#a59a76;}.cls-96{fill:#898163;}.cls-97{fill:#ed7066;}.cls-98{opacity:0.46;}</style></defs><title>Asset 2</title><g id="Layer_2" data-name="Layer 2"><g id="_ÎÓÈ_1" data-name="—ÎÓÈ_1"><circle class="cls-1" cx="51.22" cy="51.22" r="51.22"/><path class="cls-2" d="M55.59,10S37.16,4.64,26.72,30.12s.42,63.6.42,63.6H72.36S85.1,57.88,76.56,29.3C70.62,9.42,55.59,10,55.59,10Z"/><path class="cls-3" d="M33.77,45.89a118.42,118.42,0,0,0-2.63,27.43,84.75,84.75,0,0,0,3.57,20.44H62.19a210.89,210.89,0,0,0,4.73-29.67,111.07,111.07,0,0,0,0-19C55.86,45.14,44.81,45.44,33.77,45.89Z"/><path class="cls-4" d="M25.56,50.38c1,3.15,3.54,5.1,5.67,4.36s3.06-3.88,2.06-7-3.54-5.1-5.68-4.36S24.56,47.24,25.56,50.38Z"/><path class="cls-5" d="M48,84.87h0a4.93,4.93,0,0,1-4.35-5.38s-3.09-4.6-1.76-4.79c2.44-.35,2.33-7.16,2.33-7.16a4.9,4.9,0,0,1,4.86-4.91h0A4.91,4.91,0,0,1,53.4,68s-.09,6.35,1.91,6.37c1.45,0-2.49,5.58-2.49,5.58A4.92,4.92,0,0,1,48,84.87Z"/><path class="cls-4" d="M43.66,72.32a21.19,21.19,0,0,0,10.06-.45A22,22,0,0,1,53.4,68a4.91,4.91,0,0,0-4.35-5.37,4.9,4.9,0,0,0-4.86,4.91A20.46,20.46,0,0,1,43.66,72.32Z"/><path class="cls-5" d="M47.9,70.61C29,70.44,25.27,44,30.51,31.82l.08-.19a27.71,27.71,0,0,1,2.15-4,23.58,23.58,0,0,1,11.69-9.59,20.55,20.55,0,0,1,6.85-1.13C65.11,17,71.06,32.4,70.4,45.24,69.76,57.7,59.13,70.71,47.9,70.61Z"/><g class="cls-6"><circle class="cls-5" cx="37.12" cy="50.49" r="8.14" transform="translate(-20.52 75.06) rotate(-76.76)"/><circle class="cls-7" cx="37.12" cy="50.49" r="8.09"/><circle class="cls-8" cx="37.12" cy="50.49" r="8.04" transform="translate(-20 76.24) rotate(-77.94)"/><circle class="cls-9" cx="37.12" cy="50.49" r="7.99" transform="translate(-20.72 74.59) rotate(-76.3)"/><circle class="cls-10" cx="37.12" cy="50.49" r="7.94"/><circle class="cls-11" cx="37.12" cy="50.49" r="7.88" transform="translate(-20.52 75.06) rotate(-76.76)"/><circle class="cls-12" cx="37.12" cy="50.49" r="7.83" transform="translate(-20.52 75.06) rotate(-76.76)"/><circle class="cls-13" cx="37.12" cy="50.49" r="7.78"/><circle class="cls-14" cx="37.12" cy="50.49" r="7.73" transform="translate(-20.52 75.06) rotate(-76.76)"/><circle class="cls-15" cx="37.12" cy="50.49" r="7.68" transform="translate(-20.52 75.06) rotate(-76.76)"/><circle class="cls-16" cx="37.12" cy="50.49" r="7.63"/><circle class="cls-17" cx="37.12" cy="50.49" r="7.58" transform="translate(-20.52 75.06) rotate(-76.76)"/><circle class="cls-18" cx="37.12" cy="50.49" r="7.53" transform="translate(-20.52 75.06) rotate(-76.76)"/><circle class="cls-19" cx="37.12" cy="50.49" r="7.48"/><circle class="cls-20" cx="37.12" cy="50.49" r="7.43" transform="translate(-20.52 75.06) rotate(-76.76)"/><circle class="cls-21" cx="37.12" cy="50.49" r="7.38" transform="translate(-20.52 75.06) rotate(-76.76)"/><circle class="cls-22" cx="37.12" cy="50.49" r="7.32"/><path class="cls-23" d="M44.4,50.49a7.28,7.28,0,1,1-7.28-7.28A7.28,7.28,0,0,1,44.4,50.49Z"/><path class="cls-24" d="M44.34,50.49a7.22,7.22,0,1,1-7.22-7.23A7.22,7.22,0,0,1,44.34,50.49Z"/><circle class="cls-25" cx="37.12" cy="50.49" r="7.17"/><path class="cls-26" d="M44.24,50.49a7.12,7.12,0,1,1-7.12-7.13A7.12,7.12,0,0,1,44.24,50.49Z"/><path class="cls-27" d="M44.19,50.49a7.07,7.07,0,1,1-7.07-7.08A7.07,7.07,0,0,1,44.19,50.49Z"/><circle class="cls-28" cx="37.12" cy="50.49" r="7.02"/><path class="cls-29" d="M44.09,50.49a7,7,0,1,1-7-7A7,7,0,0,1,44.09,50.49Z"/><path class="cls-30" d="M44,50.49a6.92,6.92,0,1,1-6.92-6.92A6.91,6.91,0,0,1,44,50.49Z"/><circle class="cls-31" cx="37.12" cy="50.49" r="6.87"/><path class="cls-32" d="M43.94,50.49a6.82,6.82,0,1,1-6.82-6.82A6.81,6.81,0,0,1,43.94,50.49Z"/><path class="cls-33" d="M43.89,50.49a6.77,6.77,0,1,1-6.77-6.77A6.77,6.77,0,0,1,43.89,50.49Z"/><circle class="cls-34" cx="37.12" cy="50.49" r="6.71"/><path class="cls-35" d="M43.79,50.49a6.67,6.67,0,1,1-6.67-6.67A6.67,6.67,0,0,1,43.79,50.49Z"/><path class="cls-36" d="M43.73,50.49a6.61,6.61,0,1,1-6.61-6.62A6.61,6.61,0,0,1,43.73,50.49Z"/><circle class="cls-37" cx="37.12" cy="50.49" r="6.56"/><path class="cls-38" d="M43.63,50.49A6.51,6.51,0,1,1,37.12,44,6.51,6.51,0,0,1,43.63,50.49Z"/><path class="cls-39" d="M43.58,50.49A6.46,6.46,0,1,1,37.12,44,6.46,6.46,0,0,1,43.58,50.49Z"/><circle class="cls-40" cx="37.12" cy="50.49" r="6.41"/><path class="cls-41" d="M43.48,50.49a6.36,6.36,0,1,1-6.36-6.36A6.35,6.35,0,0,1,43.48,50.49Z"/><path class="cls-42" d="M43.43,50.49a6.31,6.31,0,1,1-6.31-6.31A6.31,6.31,0,0,1,43.43,50.49Z"/><circle class="cls-43" cx="37.12" cy="50.49" r="6.26"/><path class="cls-44" d="M43.33,50.49a6.21,6.21,0,1,1-6.21-6.21A6.21,6.21,0,0,1,43.33,50.49Z"/><path class="cls-45" d="M43.28,50.49a6.16,6.16,0,1,1-6.16-6.16A6.16,6.16,0,0,1,43.28,50.49Z"/><circle class="cls-46" cx="37.12" cy="50.49" r="6.1"/><path class="cls-47" d="M43.17,50.49a6.05,6.05,0,1,1-6.05-6.06A6.05,6.05,0,0,1,43.17,50.49Z"/><path class="cls-48" d="M43.12,50.49a6,6,0,1,1-6-6A6,6,0,0,1,43.12,50.49Z"/><circle class="cls-49" cx="37.12" cy="50.49" r="5.95"/><path class="cls-50" d="M43,50.49a5.9,5.9,0,1,1-5.9-5.91A5.9,5.9,0,0,1,43,50.49Z"/><path class="cls-51" d="M43,50.49a5.85,5.85,0,1,1-5.85-5.85A5.84,5.84,0,0,1,43,50.49Z"/><circle class="cls-52" cx="37.12" cy="50.49" r="5.8"/><path class="cls-53" d="M42.87,50.49a5.75,5.75,0,1,1-5.75-5.75A5.74,5.74,0,0,1,42.87,50.49Z"/><path class="cls-54" d="M42.82,50.49a5.7,5.7,0,1,1-5.7-5.7A5.7,5.7,0,0,1,42.82,50.49Z"/><circle class="cls-55" cx="37.12" cy="50.49" r="5.65"/><path class="cls-56" d="M42.72,50.49a5.6,5.6,0,1,1-5.6-5.6A5.6,5.6,0,0,1,42.72,50.49Z"/><path class="cls-57" d="M42.67,50.49a5.55,5.55,0,1,1-5.55-5.55A5.55,5.55,0,0,1,42.67,50.49Z"/><circle class="cls-58" cx="37.12" cy="50.49" r="5.49"/><path class="cls-59" d="M42.56,50.49A5.44,5.44,0,1,1,37.12,45,5.44,5.44,0,0,1,42.56,50.49Z"/><path class="cls-60" d="M42.51,50.49a5.39,5.39,0,1,1-5.39-5.4A5.39,5.39,0,0,1,42.51,50.49Z"/><circle class="cls-61" cx="37.12" cy="50.49" r="5.34"/><path class="cls-62" d="M42.41,50.49a5.29,5.29,0,1,1-5.29-5.3A5.29,5.29,0,0,1,42.41,50.49Z"/><path class="cls-63" d="M42.36,50.49a5.24,5.24,0,1,1-5.24-5.24A5.23,5.23,0,0,1,42.36,50.49Z"/><circle class="cls-64" cx="37.12" cy="50.49" r="5.19"/><path class="cls-65" d="M42.26,50.49a5.14,5.14,0,1,1-5.14-5.14A5.14,5.14,0,0,1,42.26,50.49Z"/><path class="cls-66" d="M42.21,50.49a5.09,5.09,0,1,1-5.09-5.09A5.09,5.09,0,0,1,42.21,50.49Z"/><circle class="cls-67" cx="37.12" cy="50.49" r="5.04"/><path class="cls-68" d="M42.11,50.49a5,5,0,1,1-5-5A5,5,0,0,1,42.11,50.49Z"/><path class="cls-69" d="M42.06,50.49a4.94,4.94,0,1,1-4.94-4.94A4.94,4.94,0,0,1,42.06,50.49Z"/><circle class="cls-70" cx="37.12" cy="50.49" r="4.88"/><path class="cls-71" d="M42,50.49a4.83,4.83,0,1,1-4.83-4.84A4.83,4.83,0,0,1,42,50.49Z"/><path class="cls-72" d="M41.9,50.49a4.78,4.78,0,1,1-4.78-4.79A4.78,4.78,0,0,1,41.9,50.49Z"/><circle class="cls-73" cx="37.12" cy="50.49" r="4.73"/><path class="cls-74" d="M41.8,50.49a4.68,4.68,0,1,1-4.68-4.68A4.67,4.67,0,0,1,41.8,50.49Z"/><path class="cls-75" d="M41.75,50.49a4.63,4.63,0,1,1-4.63-4.63A4.62,4.62,0,0,1,41.75,50.49Z"/><circle class="cls-76" cx="37.12" cy="50.49" r="4.58"/><path class="cls-77" d="M41.65,50.49A4.53,4.53,0,1,1,37.12,46,4.52,4.52,0,0,1,41.65,50.49Z"/><path class="cls-78" d="M41.6,50.49A4.48,4.48,0,1,1,37.12,46,4.48,4.48,0,0,1,41.6,50.49Z"/><circle class="cls-79" cx="37.12" cy="50.49" r="4.43"/><path class="cls-80" d="M41.5,50.49a4.38,4.38,0,1,1-4.38-4.38A4.38,4.38,0,0,1,41.5,50.49Z"/><path class="cls-81" d="M41.45,50.49a4.33,4.33,0,1,1-4.33-4.33A4.33,4.33,0,0,1,41.45,50.49Z"/><circle class="cls-82" cx="37.12" cy="50.49" r="4.27"/><path class="cls-83" d="M41.34,50.49a4.22,4.22,0,1,1-4.22-4.23A4.22,4.22,0,0,1,41.34,50.49Z"/><path class="cls-84" d="M41.29,50.49a4.17,4.17,0,1,1-4.17-4.18A4.17,4.17,0,0,1,41.29,50.49Z"/><circle class="cls-85" cx="37.12" cy="50.49" r="4.12"/><path class="cls-86" d="M41.19,50.49a4.07,4.07,0,1,1-4.07-4.07A4.07,4.07,0,0,1,41.19,50.49Z"/></g><g class="cls-87"><circle class="cls-5" cx="58.01" cy="50.49" r="8.14" transform="translate(-17.49 65.13) rotate(-52.01)"/><circle class="cls-7" cx="58.01" cy="50.49" r="8.09"/><circle class="cls-8" cx="58.01" cy="50.49" r="8.04" transform="translate(-18.71 55.8) rotate(-45)"/><circle class="cls-9" cx="58.01" cy="50.49" r="7.99" transform="translate(-18.71 55.8) rotate(-45)"/><circle class="cls-10" cx="58.01" cy="50.49" r="7.94"/><circle class="cls-11" cx="58.01" cy="50.49" r="7.88" transform="translate(-18.86 52.87) rotate(-42.81)"/><circle class="cls-12" cx="58.01" cy="50.49" r="7.83" transform="translate(-18.71 55.8) rotate(-45)"/><circle class="cls-13" cx="58.01" cy="50.49" r="7.78"/><circle class="cls-14" cx="58.01" cy="50.49" r="7.73" transform="translate(-18.71 55.8) rotate(-45)"/><circle class="cls-15" cx="58.01" cy="50.49" r="7.68" transform="translate(-18.71 55.8) rotate(-45)"/><circle class="cls-16" cx="58.01" cy="50.49" r="7.63"/><circle class="cls-17" cx="58.01" cy="50.49" r="7.58" transform="translate(-18.71 55.8) rotate(-45)"/><circle class="cls-18" cx="58.01" cy="50.49" r="7.53" transform="translate(-18.71 55.8) rotate(-45)"/><circle class="cls-19" cx="58.01" cy="50.49" r="7.48"/><circle class="cls-20" cx="58.01" cy="50.49" r="7.43" transform="translate(-18.71 55.8) rotate(-45)"/><circle class="cls-21" cx="58.01" cy="50.49" r="7.38" transform="translate(-17.49 65.12) rotate(-52.01)"/><circle class="cls-22" cx="58.01" cy="50.49" r="7.32"/><circle class="cls-23" cx="58.01" cy="50.49" r="7.27" transform="translate(-18.71 55.8) rotate(-45)"/><path class="cls-24" d="M65.23,50.49A7.23,7.23,0,1,1,58,43.26,7.22,7.22,0,0,1,65.23,50.49Z"/><circle class="cls-25" cx="58.01" cy="50.49" r="7.17"/><path class="cls-26" d="M65.13,50.49A7.13,7.13,0,1,1,58,43.36,7.12,7.12,0,0,1,65.13,50.49Z"/><path class="cls-27" d="M65.08,50.49A7.07,7.07,0,1,1,58,43.41,7.08,7.08,0,0,1,65.08,50.49Z"/><circle class="cls-28" cx="58.01" cy="50.49" r="7.02"/><path class="cls-29" d="M65,50.49a7,7,0,1,1-7-7A7,7,0,0,1,65,50.49Z"/><path class="cls-30" d="M64.92,50.49A6.92,6.92,0,1,1,58,43.57,6.91,6.91,0,0,1,64.92,50.49Z"/><circle class="cls-31" cx="58.01" cy="50.49" r="6.87"/><path class="cls-32" d="M64.82,50.49A6.82,6.82,0,1,1,58,43.67,6.81,6.81,0,0,1,64.82,50.49Z"/><path class="cls-33" d="M64.77,50.49A6.77,6.77,0,1,1,58,43.72,6.76,6.76,0,0,1,64.77,50.49Z"/><circle class="cls-34" cx="58.01" cy="50.49" r="6.71"/><path class="cls-35" d="M64.67,50.49A6.67,6.67,0,1,1,58,43.82,6.66,6.66,0,0,1,64.67,50.49Z"/><path class="cls-36" d="M64.62,50.49A6.62,6.62,0,1,1,58,43.87,6.61,6.61,0,0,1,64.62,50.49Z"/><circle class="cls-37" cx="58.01" cy="50.49" r="6.56"/><path class="cls-38" d="M64.52,50.49A6.51,6.51,0,1,1,58,44,6.52,6.52,0,0,1,64.52,50.49Z"/><path class="cls-39" d="M64.47,50.49A6.46,6.46,0,1,1,58,44,6.47,6.47,0,0,1,64.47,50.49Z"/><circle class="cls-40" cx="58.01" cy="50.49" r="6.41"/><path class="cls-41" d="M64.36,50.49A6.36,6.36,0,1,1,58,44.13,6.35,6.35,0,0,1,64.36,50.49Z"/><path class="cls-42" d="M64.31,50.49A6.31,6.31,0,1,1,58,44.18,6.3,6.3,0,0,1,64.31,50.49Z"/><circle class="cls-43" cx="58.01" cy="50.49" r="6.26"/><path class="cls-44" d="M64.21,50.49A6.21,6.21,0,1,1,58,44.28,6.21,6.21,0,0,1,64.21,50.49Z"/><path class="cls-45" d="M64.16,50.49A6.16,6.16,0,1,1,58,44.33,6.15,6.15,0,0,1,64.16,50.49Z"/><circle class="cls-46" cx="58.01" cy="50.49" r="6.1"/><path class="cls-47" d="M64.06,50.49A6.06,6.06,0,1,1,58,44.43,6.05,6.05,0,0,1,64.06,50.49Z"/><path class="cls-48" d="M64,50.49a6,6,0,1,1-6-6A6,6,0,0,1,64,50.49Z"/><circle class="cls-49" cx="58.01" cy="50.49" r="5.95"/><path class="cls-50" d="M63.91,50.49A5.9,5.9,0,1,1,58,44.58,5.91,5.91,0,0,1,63.91,50.49Z"/><path class="cls-51" d="M63.86,50.49A5.85,5.85,0,1,1,58,44.64,5.84,5.84,0,0,1,63.86,50.49Z"/><circle class="cls-52" cx="58.01" cy="50.49" r="5.8"/><path class="cls-53" d="M63.75,50.49A5.75,5.75,0,1,1,58,44.74,5.74,5.74,0,0,1,63.75,50.49Z"/><path class="cls-54" d="M63.7,50.49A5.7,5.7,0,1,1,58,44.79,5.69,5.69,0,0,1,63.7,50.49Z"/><circle class="cls-55" cx="58.01" cy="50.49" r="5.65"/><path class="cls-56" d="M63.6,50.49A5.6,5.6,0,1,1,58,44.89,5.59,5.59,0,0,1,63.6,50.49Z"/><path class="cls-57" d="M63.55,50.49A5.55,5.55,0,1,1,58,44.94,5.54,5.54,0,0,1,63.55,50.49Z"/><circle class="cls-58" cx="58.01" cy="50.49" r="5.49"/><path class="cls-59" d="M63.45,50.49A5.45,5.45,0,1,1,58,45,5.45,5.45,0,0,1,63.45,50.49Z"/><path class="cls-60" d="M63.4,50.49A5.4,5.4,0,1,1,58,45.09,5.4,5.4,0,0,1,63.4,50.49Z"/><circle class="cls-61" cx="58.01" cy="50.49" r="5.34"/><path class="cls-62" d="M63.3,50.49A5.29,5.29,0,1,1,58,45.19,5.29,5.29,0,0,1,63.3,50.49Z"/><path class="cls-63" d="M63.25,50.49A5.24,5.24,0,1,1,58,45.25,5.24,5.24,0,0,1,63.25,50.49Z"/><circle class="cls-64" cx="58.01" cy="50.49" r="5.19"/><path class="cls-65" d="M63.14,50.49A5.14,5.14,0,1,1,58,45.35,5.13,5.13,0,0,1,63.14,50.49Z"/><path class="cls-66" d="M63.09,50.49A5.09,5.09,0,1,1,58,45.4,5.08,5.08,0,0,1,63.09,50.49Z"/><circle class="cls-67" cx="58.01" cy="50.49" r="5.04"/><path class="cls-68" d="M63,50.49a5,5,0,1,1-5-5A5,5,0,0,1,63,50.49Z"/><path class="cls-69" d="M62.94,50.49A4.94,4.94,0,1,1,58,45.55,4.93,4.93,0,0,1,62.94,50.49Z"/><circle class="cls-70" cx="58.01" cy="50.49" r="4.88"/><path class="cls-71" d="M62.84,50.49A4.84,4.84,0,1,1,58,45.65,4.83,4.83,0,0,1,62.84,50.49Z"/><path class="cls-72" d="M62.79,50.49A4.79,4.79,0,1,1,58,45.7,4.78,4.78,0,0,1,62.79,50.49Z"/><circle class="cls-73" cx="58.01" cy="50.49" r="4.73"/><path class="cls-74" d="M62.69,50.49A4.68,4.68,0,1,1,58,45.81,4.68,4.68,0,0,1,62.69,50.49Z"/><path class="cls-75" d="M62.64,50.49A4.63,4.63,0,1,1,58,45.86,4.63,4.63,0,0,1,62.64,50.49Z"/><circle class="cls-76" cx="58.01" cy="50.49" r="4.58"/><path class="cls-77" d="M62.53,50.49A4.53,4.53,0,1,1,58,46,4.52,4.52,0,0,1,62.53,50.49Z"/><path class="cls-78" d="M62.48,50.49A4.48,4.48,0,1,1,58,46,4.47,4.47,0,0,1,62.48,50.49Z"/><circle class="cls-79" cx="58.01" cy="50.49" r="4.43"/><path class="cls-80" d="M62.38,50.49A4.38,4.38,0,1,1,58,46.11,4.37,4.37,0,0,1,62.38,50.49Z"/><path class="cls-81" d="M62.33,50.49A4.33,4.33,0,1,1,58,46.16,4.33,4.33,0,0,1,62.33,50.49Z"/><circle class="cls-82" cx="58.01" cy="50.49" r="4.27"/><path class="cls-83" d="M62.23,50.49A4.23,4.23,0,1,1,58,46.26,4.22,4.22,0,0,1,62.23,50.49Z"/><path class="cls-84" d="M62.18,50.49A4.17,4.17,0,1,1,58,46.31,4.17,4.17,0,0,1,62.18,50.49Z"/><circle class="cls-85" cx="58.01" cy="50.49" r="4.12"/><path class="cls-86" d="M62.08,50.49A4.07,4.07,0,1,1,58,46.42,4.07,4.07,0,0,1,62.08,50.49Z"/></g><path class="cls-5" d="M75,50.38c-1,3.15-3.54,5.1-5.67,4.36s-3.06-3.88-2.06-7,3.54-5.1,5.68-4.36S76,47.24,75,50.38Z"/><path class="cls-4" d="M72.72,51.94a5.66,5.66,0,0,1-5.37-1.39c-2.73,8.55-10.08,16.73-18.8,18.09a18.48,18.48,0,0,1-12.19-2.55A16.58,16.58,0,0,0,47.9,70.61c8.52.07,16.69-7.4,20.42-16.45a2.9,2.9,0,0,0,1,.58c2,.7,4.43-1,5.52-3.92A6,6,0,0,1,72.72,51.94Z"/><path class="cls-88" d="M33.36,37.16,33,44.1l8.12,4.62s3.15-5.28,1.63-10.61l-3-1.14-4-.56Z"/><path class="cls-4" d="M69.23,49.05s.7-5.12,4.41-3.83a4.37,4.37,0,0,0-2.21,4.12Z"/><path class="cls-89" d="M39.45,56.08s6.83,5,15.42-.49h0c0,.17-1.2,6.82-8,7S39.45,56.08,39.45,56.08Z"/><path class="cls-90" d="M53,56.92c0-.09,0-.19,0-.28a13.72,13.72,0,0,1-12.4.11,5.71,5.71,0,0,1-.14,1,7.69,7.69,0,0,1-.27.9,6.6,6.6,0,0,0,6.72,4,7.77,7.77,0,0,0,6.74-3.88A10.78,10.78,0,0,1,53,56.92Z"/><path class="cls-91" d="M41.09,59.78c1.84-.69,4-.49,6-.44a14.19,14.19,0,0,1,5.33,1,9,9,0,0,0,1.25-1.61,10.78,10.78,0,0,1-.6-1.82c0-.09,0-.19,0-.28a13.72,13.72,0,0,1-12.4.11,5.71,5.71,0,0,1-.14,1,7.69,7.69,0,0,1-.27.9,9,9,0,0,0,.7,1.22A.81.81,0,0,1,41.09,59.78Z"/><path class="cls-90" d="M41.14,48.72S38.64,37.23,33,44.1c0,0-.92,1.34,2.11,3.35A9.66,9.66,0,0,0,41.14,48.72Z"/><path class="cls-88" d="M52.38,38.09s-.73,6.28.19,8.86l10-3.18s.78-3.85-.33-6.61l-3.43-.75Z"/><path class="cls-2" d="M38.45,43.36c-1-.31-2.14.69-2.63,2.22a3.83,3.83,0,0,0-.06,2.24,8.35,8.35,0,0,0,2.27.77,3.68,3.68,0,0,0,1.28-1.91C39.8,45.15,39.41,43.66,38.45,43.36Z"/><path class="cls-92" d="M38.45,43.36c-.74-.23-1.58.28-2.16,1.21a1.68,1.68,0,0,1,.24-.07,2.3,2.3,0,0,1,2.08.6A2.44,2.44,0,0,1,39,47.45a3.57,3.57,0,0,0,.33-.77C39.8,45.15,39.41,43.66,38.45,43.36Z"/><path class="cls-93" d="M34.51,46.33s2.28-1.86,2.56-.62S34.85,47,34.85,47Z"/><path class="cls-2" d="M33,44.1A1.23,1.23,0,0,1,32,43.36a2.61,2.61,0,0,1-.32-1.52.38.38,0,0,0,.21.31,1.24,1.24,0,0,0,.38.09,7.23,7.23,0,0,0,3-.62A3,3,0,0,1,38,42c2.4,1.53,3.14,6.72,3.14,6.72s-2-5.32-4.18-5.64a4.27,4.27,0,0,0-2.64.8A2.33,2.33,0,0,1,33,44.1Z"/><path class="cls-90" d="M62.33,43.78c0-.17-4.48-3.77-9.76,3.17,0,0,0,.72,2.26,1.33A6.4,6.4,0,0,0,62.33,43.78Z"/><path class="cls-2" d="M58.49,43.18c-1-.2-2.16.94-2.64,2.56A3.45,3.45,0,0,0,56,48.45a6.57,6.57,0,0,0,2.69-.54,5.16,5.16,0,0,0,.71-1.45C59.87,44.84,59.47,43.37,58.49,43.18Z"/><path class="cls-92" d="M58.49,43.18c-.73-.16-1.59.47-2.18,1.48a2.44,2.44,0,0,1,.24-.1,2.16,2.16,0,0,1,2.11.37A2.38,2.38,0,0,1,59,47.28a5.43,5.43,0,0,0,.34-.82C59.87,44.84,59.47,43.37,58.49,43.18Z"/><path class="cls-93" d="M54.57,46.64s2.31-2.15,2.59-.92-2.59,2-2.59,2Z"/><path class="cls-2" d="M52.57,47a3,3,0,0,0,.23-.64,7.66,7.66,0,0,1,.81-1.52c1.28-1.9,4-3.74,6.17-3.15a5.45,5.45,0,0,1,1.58.79,4,4,0,0,0,1.27.66A1.44,1.44,0,0,0,64,42.7a2.83,2.83,0,0,1-2.92,1.8A11.26,11.26,0,0,1,59.73,44C57.2,43.22,54.35,44.92,52.57,47Z"/><path class="cls-2" d="M35.8,36.83c3-.33,5,3,6.81,2.56.6-.16.16-1.28.16-1.28s-4.12-5.44-9.41-1C33.36,37.16,35.07,36.91,35.8,36.83Z"/><path class="cls-2" d="M61.17,37.11c-5.55-1.41-6.14,2.11-7.76,2-.63,0-1-1.07-1-1.07s4.61-5.42,9.9-.93A10,10,0,0,1,61.17,37.11Z"/><path class="cls-5" d="M46,43.09s-.76,4.58-3.3,6.8.9,5.82,4.29,4.59,2.92-3.67,2.92-3.67Z"/><path class="cls-4" d="M42.09,52.75A4,4,0,0,0,47,54.48c2.92-1.06,3-3,2.93-3.53A6.86,6.86,0,0,1,42.09,52.75Z"/><path class="cls-94" d="M45,50.28a6,6,0,0,0,1.56-2.69A5.94,5.94,0,0,0,46.79,46c0-.26-.26-2.23-1-2-.35,1.42-1.26,4.32-3.12,6a2.26,2.26,0,0,0-.87,1.7A4,4,0,0,0,45,50.28Z"/><path class="cls-2" d="M52.1,13.63c-7.48,0-25.2,4.15-23.75,29.57,0,0,.85-10.85,8.79-16.54,5.12-3.67,7.48,1.72,11.44,1.59,5.76-.18,7.3-5.09,13-1.49,3.12,2,6,12.67,6.45,17.11.28,3,3.42-.78,3.42-.78C73.26,20.24,60.52,13.63,52.1,13.63Z"/><path class="cls-95" d="M28.35,43.2S27.9,19.73,49.87,20.56,71.43,43.09,71.43,43.09s4.37-26.73-20.9-26.55S28.35,43.2,28.35,43.2Z"/><path class="cls-5" d="M59.26,74.91a52,52,0,0,0-9.39-.78A45,45,0,0,0,36.16,76c.85,1.3,1.65,2.63,2.57,3.81a106,106,0,0,0,8.44,9.29A162.22,162.22,0,0,1,59.26,74.91Z"/><path class="cls-96" d="M58,74.7a12,12,0,0,1-9,6.39c-4.84.67-9-1.63-10.6-5.71-11.21,2.74-15.9,9.44-17.85,14.86,3.08,2.43,6.38,5.23,9.89,7.81A51.24,51.24,0,0,0,67.9,99.66c3.35-2.16,6.52-4.46,9.4-6.25l.39-.31C77.46,87.61,74.75,77.24,58,74.7Z"/><path class="cls-90" d="M19.47,91.41A51.17,51.17,0,0,0,36,100.14c-.18-2-.39-4.7-.5-5.66-.67-5.62-1-11.79-2.11-17.43a.23.23,0,0,0-.32-.17C26,79.94,22.12,84.42,19.47,91.41Z"/><path class="cls-90" d="M79,94.26c-.51-4.93-3.72-14.91-13.57-18a.21.21,0,0,0-.25.13,111.46,111.46,0,0,0-4,25.1A51,51,0,0,0,79,94.26Z"/><path class="cls-76" d="M39.45,55.92S41.61,57.1,46.91,57a20.61,20.61,0,0,0,8-1.45,11,11,0,0,1-8.08,3.51C41.19,58.93,39.45,55.92,39.45,55.92Z"/><path class="cls-97" d="M39.45,55.92a7,7,0,0,0,7.07,5.62c6.08,0,8.35-5.95,8.35-5.95s-1.09,8.09-8.38,8.09S39.45,55.92,39.45,55.92Z"/><path class="cls-98" d="M46.32,64.55H48a.77.77,0,0,1,.76,1c-.13.39-.54.76-1.59.82-1.23.06-1.57-.45-1.62-.94A.78.78,0,0,1,46.32,64.55Z"/></g></g></svg>