<svg xmlns="http://www.w3.org/2000/svg" width="160" height="50" viewBox="0 0 160 50">
    <g fill="none">
        <rect width="160" height="50" rx="4"/>
        <g fill="#6A859C">
            <path d="M15.786 21.784H8.294v2.238h5.314c-.263 3.138-2.857 4.476-5.305 4.476-3.133 0-5.867-2.48-5.867-5.958 0-3.388 2.606-5.997 5.873-5.997 2.521 0 4.007 1.618 4.007 1.618l1.557-1.623S11.874 14.3 8.23 14.3C3.59 14.3 0 18.242 0 22.5c0 4.173 3.376 8.242 8.348 8.242 4.373 0 7.574-3.016 7.574-7.475 0-.94-.136-1.484-.136-1.484v.001zm6.37-1.621c-3.075 0-5.278 2.419-5.278 5.241 0 2.864 2.137 5.328 5.314 5.328 2.876 0 5.232-2.213 5.232-5.266 0-3.5-2.741-5.303-5.268-5.303zm.03 2.075c1.512 0 2.945 1.23 2.945 3.214 0 1.94-1.427 3.206-2.952 3.206-1.675 0-2.997-1.351-2.997-3.222 0-1.83 1.305-3.198 3.004-3.198zm11.573-2.075c-3.075 0-5.278 2.419-5.278 5.241 0 2.864 2.137 5.328 5.314 5.328 2.876 0 5.232-2.213 5.232-5.266 0-3.5-2.74-5.303-5.268-5.303zm.03 2.075c1.512 0 2.945 1.23 2.945 3.214 0 1.94-1.426 3.206-2.952 3.206-1.675 0-2.997-1.351-2.997-3.222 0-1.83 1.306-3.198 3.005-3.198h-.001zm11.335-2.07c-2.822 0-5.04 2.488-5.04 5.28 0 3.182 2.572 5.291 4.992 5.291 1.496 0 2.292-.598 2.879-1.284v1.042c0 1.823-1.1 2.915-2.76 2.915-1.603 0-2.408-1.2-2.687-1.881l-2.018.849c.716 1.523 2.157 3.112 4.722 3.112 2.806 0 4.944-1.779 4.944-5.51v-9.496h-2.2v.895c-.678-.734-1.603-1.213-2.832-1.213zm.205 2.072c1.383 0 2.804 1.19 2.804 3.22 0 2.064-1.418 3.202-2.835 3.202-1.504 0-2.904-1.23-2.904-3.182 0-2.03 1.454-3.24 2.935-3.24zm15.077-2.084c-2.662 0-4.897 2.132-4.897 5.277 0 3.329 2.491 5.303 5.153 5.303 2.221 0 3.584-1.223 4.398-2.32l-1.815-1.215c-.47.736-1.258 1.455-2.572 1.455-1.476 0-2.155-.813-2.575-1.601l7.04-2.94-.366-.863c-.68-1.687-2.266-3.096-4.366-3.096zm.092 2.032c.96 0 1.65.513 1.943 1.129l-4.702 1.978c-.202-1.531 1.24-3.107 2.759-3.107zm-8.576 8.234h2.312V14.846h-2.312v15.576zm31.002 0h2.313V14.846h-2.313v15.576zm-12.262 0h2.312V14.846h-2.312v15.576z" transform="translate(46 7)"/>
            <path d="M72.974 17.173v5.27h3.281c1.436 0 2.618-1.19 2.618-2.635 0-1.445-1.182-2.635-2.618-2.635H72.974zm-2.312-2.328h5.593c2.712 0 4.93 2.234 4.93 4.963s-2.218 4.962-4.93 4.962h-5.593v-9.925zm31.647 20.647l6.695-15.336h-2.525l-6.695 15.336h2.525z" transform="translate(46 7)"/>
            <path d="M103.056 31.982l-5.162-11.826h2.525l3.561 8.156h-.924v3.67zM94.7 25.92c-.295 1.295-1.293 2.227-2.559 2.574-2.673.733-3.339-3.64.635-3.038.682.083 1.277.253 1.924.464zm0 4.502h2.313V24.82c.362-5.778-6.916-7.137-9.67-2.972l1.861 1.257c1.347-2.37 5.189-1.824 5.441.715-1.154-.307-2.402-.53-3.542-.415-1.779.181-3.302 1.319-3.544 3.181-.13 1.007.093 2.248.79 3.004 1.089 1.178 2.875 1.336 4.342.934.826-.227 1.476-.72 2.01-1.359v1.257H94.7zM9.193 3.962H5.677v.99h2.494c-.123 1.388-1.34 1.98-2.49 1.98-1.47 0-2.752-1.097-2.752-2.635 0-1.499 1.223-2.653 2.756-2.653 1.183 0 1.88.716 1.88.716l.73-.718s-.938-.99-2.648-.99c-2.177 0-3.861 1.743-3.861 3.627 0 1.846 1.584 3.645 3.917 3.645 2.052 0 3.554-1.333 3.554-3.306 0-.416-.064-.656-.064-.656zm15.006 3.962h1.245V.652h-1.245v7.272zm-6.808 0h1.163V1.738h1.91V.652h-4.981v1.086h1.908v6.186zm-6.889 0h3.735V6.838h-2.761V4.83h2.429V3.744h-2.429V1.738h2.761V.652h-3.735v7.272zm18.096 0h1.163V1.738h1.909V.652h-4.98v1.086h1.908v6.186zM37.896.652c-2.106 0-3.736 1.743-3.736 3.627 0 1.831 1.509 3.617 3.736 3.645 2.227-.028 3.735-1.814 3.735-3.645 0-1.884-1.63-3.628-3.735-3.627zm0 6.28c-1.408-.017-2.63-1.109-2.63-2.635 0-1.486 1.164-2.634 2.63-2.652 1.466.018 2.63 1.166 2.63 2.652 0 1.526-1.222 2.618-2.63 2.635zm4.98.992h.956V2.627l3.07 5.297h.955V.652h-.956v5.294L43.832.652h-.956v7.272z" transform="translate(46 7)"/>
        </g>
        <path fill="#6A859C" d="M8.718 10.176L23.342 24.87 8.788 39.692c-.425-.27-.652-.859-.656-1.619L8 11.766c-.004-.832.297-1.34.718-1.59zm19.446 9.783L10.38 10.196c-.193-.103-.403-.17-.62-.196l14.185 14.254 4.218-4.295h.001zm.79 9.327l-4.398-4.42 4.394-4.475 6.052 3.322c1.49.818.728 1.841 0 2.242l-6.048 3.331zM9.994 39.697c.124-.047.253-.107.387-.18l17.786-9.798-4.216-4.237L9.994 39.697z"/>
    </g>
</svg>
