<svg xmlns="http://www.w3.org/2000/svg" xmlns:xlink="http://www.w3.org/1999/xlink" viewBox="0 0 102.45 102.45"><defs><style>.cls-1{fill:#f4e5d7;}.cls-2,.cls-3,.cls-87,.cls-97,.cls-98{fill:#d78c74;}.cls-2{opacity:0.65;}.cls-4{fill:#381911;}.cls-5{fill:#e5a185;}.cls-6{opacity:0.38;}.cls-7{fill:#e5a084;}.cls-8{fill:#e59f83;}.cls-9{fill:#e49e83;}.cls-10{fill:#e49d82;}.cls-11{fill:#e49c81;}.cls-12{fill:#e49b80;}.cls-13{fill:#e49a80;}.cls-14{fill:#e3997f;}.cls-15{fill:#e3987e;}.cls-16{fill:#e3977d;}.cls-17{fill:#e3967c;}.cls-18{fill:#e2957c;}.cls-19{fill:#e2947b;}.cls-20{fill:#e2937a;}.cls-21{fill:#e29279;}.cls-22{fill:#e29179;}.cls-23{fill:#e19078;}.cls-24{fill:#e18f77;}.cls-25{fill:#e18e76;}.cls-26{fill:#e18d75;}.cls-27{fill:#e18c75;}.cls-28{fill:#e08b74;}.cls-29{fill:#e08a73;}.cls-30{fill:#e08972;}.cls-31{fill:#e08872;}.cls-32{fill:#df8771;}.cls-33{fill:#df8670;}.cls-34{fill:#df856f;}.cls-35{fill:#df846f;}.cls-36{fill:#df836e;}.cls-37{fill:#de826d;}.cls-38{fill:#de816c;}.cls-39{fill:#de806b;}.cls-40{fill:#de7f6b;}.cls-41{fill:#de7e6a;}.cls-42{fill:#dd7d69;}.cls-43{fill:#dd7c68;}.cls-44{fill:#dd7b68;}.cls-45{fill:#dd7a67;}.cls-46{fill:#dd7a66;}.cls-47{fill:#dc7965;}.cls-48{fill:#dc7864;}.cls-49{fill:#dc7764;}.cls-50{fill:#dc7663;}.cls-51{fill:#db7562;}.cls-52{fill:#db7461;}.cls-53{fill:#db7361;}.cls-54{fill:#db7260;}.cls-55{fill:#db715f;}.cls-56{fill:#da705e;}.cls-57{fill:#da6f5d;}.cls-58{fill:#da6e5d;}.cls-59{fill:#da6d5c;}.cls-60{fill:#da6c5b;}.cls-61{fill:#d96b5a;}.cls-62{fill:#d96a5a;}.cls-63{fill:#d96959;}.cls-64{fill:#d96858;}.cls-65{fill:#d86757;}.cls-66{fill:#d86657;}.cls-67{fill:#d86556;}.cls-68{fill:#d86455;}.cls-69{fill:#d86354;}.cls-70{fill:#d76253;}.cls-71{fill:#d76153;}.cls-72{fill:#d76052;}.cls-73{fill:#d75f51;}.cls-74{fill:#d75e50;}.cls-75{fill:#d65d50;}.cls-76{fill:#d65c4f;}.cls-77{fill:#d65b4e;}.cls-78{fill:#d65a4d;}.cls-79{fill:#d5594c;}.cls-80{fill:#d5584c;}.cls-81{fill:#d5574b;}.cls-82{fill:#d5564a;}.cls-83{fill:#d55549;}.cls-84{fill:#d45449;}.cls-85{fill:#d45348;}.cls-86{fill:#d45247;}.cls-87{opacity:0.52;}.cls-88,.cls-95,.cls-96{fill:#fff;}.cls-89{fill:url(#_ÂÁ_Ï_ÌÌ_È_ËÂÌÚ_15);}.cls-90{fill:url(#_ÂÁ_Ï_ÌÌ_È_ËÂÌÚ_9);}.cls-91{fill:#35241f;}.cls-92{fill:#6c332e;}.cls-93{fill:#d6c1ba;opacity:0.35;}.cls-94{fill:#352926;}.cls-95{opacity:0.12;}.cls-96{opacity:0.11;}.cls-97{opacity:0.63;}.cls-98{opacity:0.69;}.cls-99{fill:#281e1d;}.cls-100{fill:#5c5987;}.cls-101{fill:#646493;}</style><linearGradient id="_ÂÁ_Ï_ÌÌ_È_ËÂÌÚ_15" x1="41.77" y1="41.84" x2="43.31" y2="37.74" gradientTransform="matrix(1, 0, -0.03, 1, 1.37, 0.25)" gradientUnits="userSpaceOnUse"><stop offset="0" stop-color="#5c3333"/><stop offset="0.14" stop-color="#4d2f2f"/><stop offset="1"/></linearGradient><linearGradient id="_ÂÁ_Ï_ÌÌ_È_ËÂÌÚ_9" x1="59" y1="43" x2="60.67" y2="37.92" gradientTransform="matrix(1, 0, -0.03, 1, 1.37, 0.25)" gradientUnits="userSpaceOnUse"><stop offset="0" stop-color="#5c3333"/><stop offset="1"/></linearGradient></defs><title>male</title><g id="Layer_2" data-name="Layer 2"><g id="_ÎÓÈ_1" data-name="—ÎÓÈ_1"><circle class="cls-1" cx="51.22" cy="51.22" r="51.22"/><path class="cls-2" d="M29.73,95.74c-4.47-.8-5-14-9.53-14.51a36.84,36.84,0,0,0-3.42,7.91,51.38,51.38,0,0,0,13,8.62C30.1,96.63,30.17,95.82,29.73,95.74Z"/><path class="cls-3" d="M32.66,38.31C30.72,39,30,42,31,45s3.39,4.93,5.33,4.25S39,45.58,38,42.55,34.6,37.62,32.66,38.31Z"/><path class="cls-3" d="M52.4,51.43h0c-4.43-.07-7.57,2.14-7.51,5.31L43.8,71.11c.06,3.17,4.55,3.65,9,3.73s8-.45,8-3.61l-.47-13.61C60.22,54.46,56.83,51.51,52.4,51.43Z"/><path class="cls-4" d="M45.65,11.63a.41.41,0,0,1,0-.09A.31.31,0,0,0,45.65,11.63Z"/><path class="cls-5" d="M67.46,20.76c-.89-7-20.42-10.32-26.54-.7a88.6,88.6,0,0,0-6.58,21.06.79.79,0,0,1,0-.14S28.23,63,47.64,64.36s21.94-9,21.56-21.82h0A94,94,0,0,0,67.46,20.76Z"/><g class="cls-6"><path class="cls-5" d="M41.37,37.59c-3.86-.05-7.16,3.34-7.36,7.57s2.76,7.71,6.62,7.77,7.15-3.34,7.36-7.57S45.23,37.65,41.37,37.59Z"/><ellipse class="cls-7" cx="41" cy="45.26" rx="7.65" ry="6.93" transform="translate(-11.75 76.03) rotate(-78.08)"/><path class="cls-8" d="M41.36,37.69c-3.81,0-7.06,3.29-7.27,7.47s2.73,7.62,6.54,7.67,7.07-3.29,7.27-7.47S45.18,37.74,41.36,37.69Z"/><path class="cls-9" d="M41.36,37.74c-3.79-.06-7,3.27-7.22,7.42s2.7,7.57,6.49,7.62,7-3.27,7.23-7.42S45.15,37.79,41.36,37.74Z"/><path class="cls-10" d="M41.36,37.79c-3.77-.06-7,3.25-7.18,7.37s2.69,7.52,6.46,7.57,7-3.25,7.17-7.37S45.12,37.84,41.36,37.79Z"/><path class="cls-11" d="M41.36,37.83c-3.74,0-6.94,3.23-7.14,7.33s2.68,7.47,6.42,7.53,6.93-3.23,7.13-7.33S45.1,37.89,41.36,37.83Z"/><ellipse class="cls-12" cx="41" cy="45.26" rx="7.41" ry="6.71" transform="translate(-11.75 76.03) rotate(-78.08)"/><ellipse class="cls-13" cx="41" cy="45.26" rx="7.36" ry="6.66" transform="translate(-11.75 76.03) rotate(-78.08)"/><path class="cls-14" d="M41.35,38c-3.67,0-6.8,3.16-7,7.19s2.62,7.32,6.29,7.37,6.8-3.16,7-7.19S45,38,41.35,38Z"/><path class="cls-15" d="M41.35,38c-3.65-.06-6.76,3.14-7,7.14s2.6,7.27,6.25,7.33,6.75-3.15,7-7.15S45,38.08,41.35,38Z"/><path class="cls-16" d="M41.35,38.07c-3.62,0-6.71,3.13-6.91,7.1S37,52.4,40.65,52.45s6.71-3.13,6.9-7.1S45,38.12,41.35,38.07Z"/><path class="cls-17" d="M41.34,38.12c-3.59,0-6.66,3.11-6.85,7.05s2.57,7.18,6.16,7.23,6.67-3.1,6.86-7S44.94,38.17,41.34,38.12Z"/><path class="cls-18" d="M41.34,38.17c-3.57-.05-6.62,3.08-6.81,7s2.55,7.13,6.12,7.18,6.63-3.08,6.82-7S44.91,38.22,41.34,38.17Z"/><path class="cls-19" d="M41.34,38.22c-3.55,0-6.58,3.06-6.77,7s2.54,7.08,6.09,7.13,6.57-3.06,6.76-6.95S44.89,38.27,41.34,38.22Z"/><path class="cls-20" d="M41.34,38.26c-3.53,0-6.54,3.05-6.72,6.91s2.52,7,6,7.09,6.53-3,6.72-6.91S44.86,38.31,41.34,38.26Z"/><ellipse class="cls-21" cx="41" cy="45.26" rx="6.98" ry="6.32" transform="translate(-11.75 76.03) rotate(-78.08)"/><path class="cls-22" d="M41.33,38.36c-3.47,0-6.44,3-6.62,6.81s2.48,6.94,5.95,7,6.45-3,6.63-6.81S44.81,38.41,41.33,38.36Z"/><ellipse class="cls-23" cx="41" cy="45.26" rx="6.88" ry="6.23" transform="translate(-11.75 76.03) rotate(-78.08)"/><path class="cls-24" d="M41.33,38.46c-3.43-.05-6.36,2.95-6.54,6.71s2.45,6.85,5.88,6.89,6.35-3,6.53-6.71S44.75,38.5,41.33,38.46Z"/><path class="cls-25" d="M41.33,38.5c-3.41,0-6.31,2.94-6.49,6.67S37.27,52,40.67,52s6.31-2.94,6.49-6.67S44.73,38.55,41.33,38.5Z"/><path class="cls-26" d="M41.32,38.55c-3.38,0-6.26,2.92-6.44,6.62s2.41,6.75,5.79,6.8,6.27-2.92,6.45-6.62S44.7,38.6,41.32,38.55Z"/><path class="cls-27" d="M41.32,38.6c-3.35-.05-6.22,2.9-6.4,6.57s2.4,6.7,5.76,6.75,6.21-2.9,6.39-6.57S44.68,38.65,41.32,38.6Z"/><ellipse class="cls-28" cx="41" cy="45.26" rx="6.64" ry="6.01" transform="translate(-11.75 76.03) rotate(-78.08)"/><path class="cls-29" d="M41.32,38.7C38,38.65,35.19,41.55,35,45.18s2.36,6.6,5.67,6.64S46.81,49,47,45.34,44.62,38.74,41.32,38.7Z"/><path class="cls-30" d="M41.31,38.74c-3.28,0-6.08,2.84-6.26,6.44s2.35,6.55,5.63,6.6,6.09-2.84,6.26-6.44S44.6,38.79,41.31,38.74Z"/><path class="cls-31" d="M41.31,38.79c-3.26,0-6,2.81-6.21,6.39s2.33,6.5,5.58,6.55,6-2.81,6.22-6.39S44.57,38.84,41.31,38.79Z"/><ellipse class="cls-32" cx="41" cy="45.26" rx="6.45" ry="5.84" transform="translate(-11.75 76.03) rotate(-78.08)"/><path class="cls-33" d="M41.31,38.89c-3.21,0-6,2.77-6.12,6.29s2.29,6.41,5.5,6.45,6-2.77,6.12-6.29S44.52,38.93,41.31,38.89Z"/><path class="cls-34" d="M41.3,38.94c-3.18,0-5.9,2.75-6.07,6.24s2.28,6.36,5.46,6.4,5.91-2.75,6.08-6.24S44.49,39,41.3,38.94Z"/><ellipse class="cls-35" cx="41" cy="45.26" rx="6.3" ry="5.71" transform="translate(-11.75 76.03) rotate(-78.08)"/><path class="cls-36" d="M41.3,39a6.23,6.23,0,0,0-6,6.15,5.74,5.74,0,0,0,5.38,6.31,6.24,6.24,0,0,0,6-6.15A5.74,5.74,0,0,0,41.3,39Z"/><path class="cls-37" d="M41.3,39.08a6.19,6.19,0,0,0-5.94,6.1c-.16,3.41,2.23,6.22,5.34,6.26s5.77-2.69,5.93-6.1S44.41,39.12,41.3,39.08Z"/><path class="cls-38" d="M41.29,39.13c-3.08-.05-5.72,2.66-5.89,6s2.21,6.17,5.3,6.21a6.12,6.12,0,0,0,5.89-6A5.64,5.64,0,0,0,41.29,39.13Z"/><path class="cls-39" d="M41.29,39.18a6.07,6.07,0,0,0-5.84,6,5.62,5.62,0,0,0,5.25,6.17,6.1,6.1,0,0,0,5.85-6C46.71,42,44.36,39.22,41.29,39.18Z"/><path class="cls-40" d="M41.29,39.22a6,6,0,0,0-5.8,6,5.57,5.57,0,0,0,5.22,6.12,6,6,0,0,0,5.79-6A5.56,5.56,0,0,0,41.29,39.22Z"/><path class="cls-41" d="M41.29,39.27a6,6,0,0,0-5.75,5.91c-.16,3.31,2.15,6,5.17,6.07a6,6,0,0,0,5.75-5.91A5.52,5.52,0,0,0,41.29,39.27Z"/><path class="cls-42" d="M41.29,39.32a5.94,5.94,0,0,0-5.71,5.86,5.47,5.47,0,0,0,5.13,6,6,6,0,0,0,5.71-5.86A5.47,5.47,0,0,0,41.29,39.32Z"/><path class="cls-43" d="M41.28,39.37a5.89,5.89,0,0,0-5.66,5.81c-.15,3.26,2.12,5.93,5.09,6a5.88,5.88,0,0,0,5.66-5.81A5.42,5.42,0,0,0,41.28,39.37Z"/><path class="cls-44" d="M41.28,39.41a5.85,5.85,0,0,0-5.61,5.77,5.39,5.39,0,0,0,5,5.93,5.86,5.86,0,0,0,5.62-5.77A5.39,5.39,0,0,0,41.28,39.41Z"/><path class="cls-45" d="M41.28,39.46a5.81,5.81,0,0,0-5.57,5.73,5.34,5.34,0,0,0,5,5.87,5.81,5.81,0,0,0,5.57-5.73A5.34,5.34,0,0,0,41.28,39.46Z"/><path class="cls-46" d="M41.28,39.51a5.76,5.76,0,0,0-5.53,5.68,5.3,5.3,0,0,0,5,5.82,5.75,5.75,0,0,0,5.52-5.68A5.29,5.29,0,0,0,41.28,39.51Z"/><path class="cls-47" d="M41.27,39.56a5.7,5.7,0,0,0-5.47,5.63A5.25,5.25,0,0,0,40.72,51a5.71,5.71,0,0,0,5.48-5.63A5.25,5.25,0,0,0,41.27,39.56Z"/><path class="cls-48" d="M41.27,39.61a5.65,5.65,0,0,0-5.43,5.58,5.21,5.21,0,0,0,4.88,5.72,5.65,5.65,0,0,0,5.43-5.58A5.19,5.19,0,0,0,41.27,39.61Z"/><ellipse class="cls-49" cx="41" cy="45.26" rx="5.63" ry="5.1" transform="translate(-11.75 76.03) rotate(-78.08)"/><path class="cls-50" d="M41.27,39.7a5.56,5.56,0,0,0-5.34,5.49,5.12,5.12,0,0,0,4.8,5.63,5.56,5.56,0,0,0,5.34-5.49A5.12,5.12,0,0,0,41.27,39.7Z"/><path class="cls-51" d="M41.26,39.75A5.52,5.52,0,0,0,36,45.19a5.08,5.08,0,0,0,4.76,5.58A5.5,5.5,0,0,0,46,45.33,5.07,5.07,0,0,0,41.26,39.75Z"/><path class="cls-52" d="M41.26,39.8A5.45,5.45,0,0,0,36,45.19a5,5,0,0,0,4.71,5.53A5.47,5.47,0,0,0,46,45.33,5,5,0,0,0,41.26,39.8Z"/><path class="cls-53" d="M41.26,39.85a5.4,5.4,0,0,0-5.2,5.34,5,5,0,0,0,4.68,5.48,5.42,5.42,0,0,0,5.2-5.34A5,5,0,0,0,41.26,39.85Z"/><path class="cls-54" d="M41.26,39.89a5.38,5.38,0,0,0-5.16,5.3,5,5,0,0,0,4.64,5.44,5.37,5.37,0,0,0,5.15-5.3A4.94,4.94,0,0,0,41.26,39.89Z"/><path class="cls-55" d="M41.26,39.94a5.32,5.32,0,0,0-5.11,5.25,4.9,4.9,0,0,0,4.59,5.39,5.32,5.32,0,0,0,5.11-5.25A4.91,4.91,0,0,0,41.26,39.94Z"/><path class="cls-56" d="M41.25,40a5.27,5.27,0,0,0-5.06,5.2,4.86,4.86,0,0,0,4.55,5.34,5.26,5.26,0,0,0,5.06-5.2A4.85,4.85,0,0,0,41.25,40Z"/><path class="cls-57" d="M41.25,40a5.22,5.22,0,0,0-5,5.15,4.8,4.8,0,0,0,4.51,5.29,5.22,5.22,0,0,0,5-5.15A4.8,4.8,0,0,0,41.25,40Z"/><path class="cls-58" d="M41.25,40.09a5.17,5.17,0,0,0-5,5.1,4.76,4.76,0,0,0,4.47,5.24,5.18,5.18,0,0,0,5-5.1A4.76,4.76,0,0,0,41.25,40.09Z"/><path class="cls-59" d="M41.25,40.13a5.13,5.13,0,0,0-4.93,5.06,4.73,4.73,0,0,0,4.43,5.2,5.13,5.13,0,0,0,4.92-5.06A4.72,4.72,0,0,0,41.25,40.13Z"/><ellipse class="cls-60" cx="41" cy="45.26" rx="5.1" ry="4.62" transform="translate(-11.75 76.03) rotate(-78.08)"/><path class="cls-61" d="M41.24,40.23a5,5,0,0,0-4.83,5,4.63,4.63,0,0,0,4.34,5.09,5,5,0,0,0,4.84-5A4.64,4.64,0,0,0,41.24,40.23Z"/><path class="cls-62" d="M41.24,40.28a5,5,0,0,0-4.79,4.92,4.59,4.59,0,0,0,4.31,5,5,5,0,0,0,4.78-4.92A4.57,4.57,0,0,0,41.24,40.28Z"/><path class="cls-63" d="M41.24,40.32A4.94,4.94,0,0,0,36.5,45.2a4.54,4.54,0,0,0,4.26,5,5,5,0,0,0,4.74-4.88A4.56,4.56,0,0,0,41.24,40.32Z"/><path class="cls-64" d="M41.23,40.37a4.89,4.89,0,0,0-4.69,4.83,4.5,4.5,0,0,0,4.22,4.95,4.91,4.91,0,0,0,4.7-4.83A4.51,4.51,0,0,0,41.23,40.37Z"/><ellipse class="cls-65" cx="41" cy="45.26" rx="4.86" ry="4.4" transform="translate(-11.75 76.03) rotate(-78.08)"/><path class="cls-66" d="M41.23,40.47a4.79,4.79,0,0,0-4.6,4.73,4.41,4.41,0,0,0,4.14,4.85,4.79,4.79,0,0,0,4.6-4.73A4.41,4.41,0,0,0,41.23,40.47Z"/><path class="cls-67" d="M41.23,40.52a4.74,4.74,0,0,0-4.56,4.68,4.36,4.36,0,0,0,4.1,4.8,4.73,4.73,0,0,0,4.55-4.68A4.35,4.35,0,0,0,41.23,40.52Z"/><path class="cls-68" d="M41.23,40.56a4.7,4.7,0,0,0-4.51,4.64A4.33,4.33,0,0,0,40.77,50a4.71,4.71,0,0,0,4.51-4.64A4.33,4.33,0,0,0,41.23,40.56Z"/><path class="cls-69" d="M41.22,40.61a4.65,4.65,0,0,0-4.46,4.59,4.28,4.28,0,0,0,4,4.71,4.66,4.66,0,0,0,4.47-4.59A4.29,4.29,0,0,0,41.22,40.61Z"/><path class="cls-70" d="M41.22,40.66A4.61,4.61,0,0,0,36.8,45.2a4.24,4.24,0,0,0,4,4.66,4.6,4.6,0,0,0,4.41-4.54A4.23,4.23,0,0,0,41.22,40.66Z"/><path class="cls-71" d="M41.22,40.71a4.55,4.55,0,0,0-4.37,4.49,4.18,4.18,0,0,0,3.93,4.61,4.55,4.55,0,0,0,4.37-4.49A4.19,4.19,0,0,0,41.22,40.71Z"/><path class="cls-72" d="M41.22,40.76a4.49,4.49,0,0,0-4.33,4.44,4.14,4.14,0,0,0,3.89,4.56,4.49,4.49,0,0,0,4.33-4.44A4.15,4.15,0,0,0,41.22,40.76Z"/><ellipse class="cls-73" cx="41" cy="45.26" rx="4.47" ry="4.05" transform="matrix(0.21, -0.98, 0.98, 0.21, -11.75, 76.03)"/><path class="cls-74" d="M41.21,40.85A4.41,4.41,0,0,0,37,45.2a4.05,4.05,0,0,0,3.8,4.47A4.42,4.42,0,0,0,45,45.32,4.06,4.06,0,0,0,41.21,40.85Z"/><path class="cls-75" d="M41.21,40.9A4.37,4.37,0,0,0,37,45.2a4,4,0,0,0,3.77,4.42A4.36,4.36,0,0,0,45,45.32,4,4,0,0,0,41.21,40.9Z"/><path class="cls-76" d="M41.21,41a4.31,4.31,0,0,0-4.15,4.25,4,4,0,0,0,3.73,4.37,4.3,4.3,0,0,0,4.14-4.25A4,4,0,0,0,41.21,41Z"/><path class="cls-77" d="M41.2,41a4.26,4.26,0,0,0-4.09,4.21,3.91,3.91,0,0,0,3.68,4.31,4.27,4.27,0,0,0,4.1-4.2A3.93,3.93,0,0,0,41.2,41Z"/><ellipse class="cls-78" cx="41" cy="45.26" rx="4.23" ry="3.83" transform="translate(-11.75 76.03) rotate(-78.08)"/><path class="cls-79" d="M41.2,41.09a4.16,4.16,0,0,0-4,4.12,3.83,3.83,0,0,0,3.6,4.22,4.16,4.16,0,0,0,4-4.12A3.84,3.84,0,0,0,41.2,41.09Z"/><path class="cls-80" d="M41.2,41.14a4.12,4.12,0,0,0-4,4.07,3.79,3.79,0,0,0,3.56,4.17,4.13,4.13,0,0,0,4-4.07A3.8,3.8,0,0,0,41.2,41.14Z"/><path class="cls-81" d="M41.2,41.19a4.07,4.07,0,0,0-3.92,4,3.75,3.75,0,0,0,3.52,4.12,4.07,4.07,0,0,0,3.91-4A3.74,3.74,0,0,0,41.2,41.19Z"/><path class="cls-82" d="M41.19,41.24a4,4,0,0,0-3.86,4,3.71,3.71,0,0,0,3.47,4.08,4,4,0,0,0,3.87-4A3.7,3.7,0,0,0,41.19,41.24Z"/><path class="cls-83" d="M41.19,41.28a4,4,0,0,0-3.82,3.93,3.66,3.66,0,0,0,3.44,4,4,4,0,0,0,3.81-3.93A3.67,3.67,0,0,0,41.19,41.28Z"/><path class="cls-84" d="M41.19,41.33a3.94,3.94,0,0,0-3.78,3.88,3.63,3.63,0,0,0,3.4,4,3.92,3.92,0,0,0,3.77-3.88A3.61,3.61,0,0,0,41.19,41.33Z"/><path class="cls-85" d="M41.19,41.38a3.88,3.88,0,0,0-3.73,3.83,3.57,3.57,0,0,0,3.35,3.93,3.89,3.89,0,0,0,3.73-3.83A3.58,3.58,0,0,0,41.19,41.38Z"/><path class="cls-86" d="M41.18,41.43a3.82,3.82,0,0,0-3.68,3.78,3.52,3.52,0,0,0,3.31,3.88,3.82,3.82,0,0,0,3.68-3.78A3.52,3.52,0,0,0,41.18,41.43Z"/></g><g class="cls-6"><ellipse class="cls-5" cx="59.92" cy="45.53" rx="7.78" ry="7.51" transform="translate(-13.61 61.57) rotate(-49.54)"/><ellipse class="cls-7" cx="59.92" cy="45.53" rx="7.73" ry="7.46" transform="translate(-13.6 61.57) rotate(-49.54)"/><path class="cls-8" d="M60.28,38a7.86,7.86,0,0,0-7.88,7.46,7.24,7.24,0,0,0,7.15,7.68,7.88,7.88,0,0,0,7.89-7.47A7.24,7.24,0,0,0,60.28,38Z"/><path class="cls-9" d="M60.28,38a7.84,7.84,0,0,0-7.84,7.42,7.2,7.2,0,0,0,7.11,7.63,7.82,7.82,0,0,0,7.84-7.42A7.2,7.2,0,0,0,60.28,38Z"/><path class="cls-10" d="M60.28,38.05a7.77,7.77,0,0,0-7.79,7.37A7.15,7.15,0,0,0,59.55,53a7.76,7.76,0,0,0,7.79-7.37A7.15,7.15,0,0,0,60.28,38.05Z"/><path class="cls-11" d="M60.28,38.1a7.72,7.72,0,0,0-7.74,7.32,7.1,7.1,0,0,0,7,7.53,7.71,7.71,0,0,0,7.73-7.32A7.1,7.1,0,0,0,60.28,38.1Z"/><ellipse class="cls-12" cx="59.92" cy="45.53" rx="7.49" ry="7.23" transform="translate(-13.6 61.57) rotate(-49.54)"/><path class="cls-13" d="M60.27,38.2a7.62,7.62,0,0,0-7.64,7.22,7,7,0,0,0,6.93,7.44,7.63,7.63,0,0,0,7.64-7.23A7,7,0,0,0,60.27,38.2Z"/><path class="cls-14" d="M60.27,38.24a7.58,7.58,0,0,0-7.59,7.19,7,7,0,0,0,6.88,7.38,7.56,7.56,0,0,0,7.59-7.18A7,7,0,0,0,60.27,38.24Z"/><path class="cls-15" d="M60.27,38.29a7.53,7.53,0,0,0-7.54,7.14,6.92,6.92,0,0,0,6.84,7.33,7.51,7.51,0,0,0,7.53-7.13A6.92,6.92,0,0,0,60.27,38.29Z"/><path class="cls-16" d="M60.26,38.34a7.46,7.46,0,0,0-7.48,7.09,6.86,6.86,0,0,0,6.79,7.28,7.47,7.47,0,0,0,7.49-7.08A6.89,6.89,0,0,0,60.26,38.34Z"/><path class="cls-17" d="M60.26,38.39a7.43,7.43,0,0,0-7.44,7,6.84,6.84,0,0,0,6.75,7.24,7.43,7.43,0,0,0,7.44-7A6.83,6.83,0,0,0,60.26,38.39Z"/><path class="cls-18" d="M60.26,38.44a7.37,7.37,0,0,0-7.39,7,6.79,6.79,0,0,0,6.7,7.19,7.38,7.38,0,0,0,7.39-7A6.78,6.78,0,0,0,60.26,38.44Z"/><path class="cls-19" d="M60.26,38.48a7.33,7.33,0,0,0-7.34,7,6.73,6.73,0,0,0,6.66,7.14,7.3,7.3,0,0,0,7.33-6.94A6.75,6.75,0,0,0,60.26,38.48Z"/><path class="cls-20" d="M60.26,38.53A7.28,7.28,0,0,0,53,45.43a6.69,6.69,0,0,0,6.61,7.09,7.27,7.27,0,0,0,7.29-6.89A6.71,6.71,0,0,0,60.26,38.53Z"/><path class="cls-21" d="M60.25,38.58A7.23,7.23,0,0,0,53,45.43a6.66,6.66,0,0,0,6.57,7,7.24,7.24,0,0,0,7.24-6.85A6.66,6.66,0,0,0,60.25,38.58Z"/><path class="cls-22" d="M60.25,38.63a7.17,7.17,0,0,0-7.19,6.8,6.62,6.62,0,0,0,6.52,7,7.18,7.18,0,0,0,7.19-6.81A6.59,6.59,0,0,0,60.25,38.63Z"/><path class="cls-23" d="M60.25,38.68a7.11,7.11,0,0,0-7.14,6.75,6.56,6.56,0,0,0,6.47,7,7.12,7.12,0,0,0,7.14-6.76A6.54,6.54,0,0,0,60.25,38.68Z"/><path class="cls-24" d="M60.25,38.72a7.07,7.07,0,0,0-7.09,6.71,6.51,6.51,0,0,0,6.43,6.9,7.08,7.08,0,0,0,7.09-6.71A6.52,6.52,0,0,0,60.25,38.72Z"/><path class="cls-25" d="M60.24,38.77a7,7,0,0,0-7,6.66,6.45,6.45,0,0,0,6.38,6.85,7,7,0,0,0,7-6.66A6.47,6.47,0,0,0,60.24,38.77Z"/><ellipse class="cls-26" cx="59.92" cy="45.53" rx="6.81" ry="6.57" transform="translate(-13.6 61.58) rotate(-49.54)"/><path class="cls-27" d="M60.24,38.87a6.93,6.93,0,0,0-6.94,6.56,6.38,6.38,0,0,0,6.29,6.76,6.92,6.92,0,0,0,6.94-6.57A6.37,6.37,0,0,0,60.24,38.87Z"/><path class="cls-28" d="M60.24,38.92a6.86,6.86,0,0,0-6.89,6.51,6.32,6.32,0,0,0,6.25,6.71,6.88,6.88,0,0,0,6.89-6.52A6.33,6.33,0,0,0,60.24,38.92Z"/><path class="cls-29" d="M60.23,39a6.82,6.82,0,0,0-6.83,6.48,6.27,6.27,0,0,0,6.2,6.65,6.82,6.82,0,0,0,6.84-6.47A6.29,6.29,0,0,0,60.23,39Z"/><path class="cls-30" d="M60.23,39a6.79,6.79,0,0,0-6.79,6.43A6.24,6.24,0,0,0,59.6,52a6.76,6.76,0,0,0,6.79-6.42A6.24,6.24,0,0,0,60.23,39Z"/><path class="cls-31" d="M60.23,39.06a6.72,6.72,0,0,0-6.74,6.38A6.19,6.19,0,0,0,59.6,52a6.73,6.73,0,0,0,6.74-6.38A6.18,6.18,0,0,0,60.23,39.06Z"/><path class="cls-32" d="M60.23,39.11a6.67,6.67,0,0,0-6.69,6.33A6.15,6.15,0,0,0,59.61,52a6.67,6.67,0,0,0,6.68-6.33A6.13,6.13,0,0,0,60.23,39.11Z"/><path class="cls-33" d="M60.23,39.15a6.63,6.63,0,0,0-6.64,6.29,6.09,6.09,0,0,0,6,6.46,6.63,6.63,0,0,0,6.64-6.28A6.11,6.11,0,0,0,60.23,39.15Z"/><path class="cls-34" d="M60.22,39.2a6.58,6.58,0,0,0-6.59,6.24,6.05,6.05,0,0,0,6,6.41,6.57,6.57,0,0,0,6.59-6.23A6.06,6.06,0,0,0,60.22,39.2Z"/><path class="cls-35" d="M60.22,39.25a6.53,6.53,0,0,0-6.54,6.19,6,6,0,0,0,5.93,6.36,6.52,6.52,0,0,0,6.54-6.18A6,6,0,0,0,60.22,39.25Z"/><path class="cls-36" d="M60.22,39.3a6.47,6.47,0,0,0-6.49,6.14,6,6,0,0,0,5.88,6.32,6.48,6.48,0,0,0,6.49-6.15A6,6,0,0,0,60.22,39.3Z"/><path class="cls-37" d="M60.22,39.35a6.41,6.41,0,0,0-6.44,6.09,5.92,5.92,0,0,0,5.84,6.27,6.43,6.43,0,0,0,6.44-6.1A5.91,5.91,0,0,0,60.22,39.35Z"/><ellipse class="cls-38" cx="59.92" cy="45.53" rx="6.22" ry="6.01" transform="translate(-13.6 61.57) rotate(-49.54)"/><ellipse class="cls-39" cx="59.92" cy="45.53" rx="6.17" ry="5.96" transform="translate(-13.6 61.58) rotate(-49.55)"/><path class="cls-40" d="M60.21,39.49a6.27,6.27,0,0,0-6.29,5.95,5.77,5.77,0,0,0,5.7,6.12,6.26,6.26,0,0,0,6.29-6A5.77,5.77,0,0,0,60.21,39.49Z"/><path class="cls-41" d="M60.21,39.54A6.22,6.22,0,0,0,54,45.44a5.74,5.74,0,0,0,5.66,6.08,6.24,6.24,0,0,0,6.24-5.91A5.73,5.73,0,0,0,60.21,39.54Z"/><path class="cls-42" d="M60.2,39.59A6.17,6.17,0,0,0,54,45.44a5.7,5.7,0,0,0,5.62,6,6.18,6.18,0,0,0,6.19-5.86A5.68,5.68,0,0,0,60.2,39.59Z"/><path class="cls-43" d="M60.2,39.63a6.14,6.14,0,0,0-6.14,5.81,5.64,5.64,0,0,0,5.57,6,6.12,6.12,0,0,0,6.14-5.81A5.64,5.64,0,0,0,60.2,39.63Z"/><path class="cls-44" d="M60.2,39.68a6.09,6.09,0,0,0-6.09,5.77,5.59,5.59,0,0,0,5.52,5.92,6.06,6.06,0,0,0,6.09-5.76A5.59,5.59,0,0,0,60.2,39.68Z"/><path class="cls-45" d="M60.2,39.73a6,6,0,0,0-6,5.72,5.55,5.55,0,0,0,5.48,5.88,6,6,0,0,0,6-5.72A5.55,5.55,0,0,0,60.2,39.73Z"/><path class="cls-46" d="M60.2,39.78a6,6,0,0,0-6,5.67,5.51,5.51,0,0,0,5.44,5.83,6,6,0,0,0,6-5.67A5.5,5.5,0,0,0,60.2,39.78Z"/><ellipse class="cls-47" cx="59.92" cy="45.53" rx="5.79" ry="5.59" transform="translate(-13.61 61.57) rotate(-49.53)"/><path class="cls-48" d="M60.19,39.87a5.89,5.89,0,0,0-5.89,5.58,5.41,5.41,0,0,0,5.34,5.73,5.87,5.87,0,0,0,5.89-5.57A5.42,5.42,0,0,0,60.19,39.87Z"/><ellipse class="cls-49" cx="59.92" cy="45.53" rx="5.69" ry="5.49" transform="translate(-13.6 61.57) rotate(-49.54)"/><path class="cls-50" d="M60.19,40a5.77,5.77,0,0,0-5.79,5.48,5.32,5.32,0,0,0,5.25,5.64,5.78,5.78,0,0,0,5.79-5.48A5.32,5.32,0,0,0,60.19,40Z"/><path class="cls-51" d="M60.18,40a5.73,5.73,0,0,0-5.74,5.43A5.29,5.29,0,0,0,59.65,51a5.73,5.73,0,0,0,5.74-5.44A5.26,5.26,0,0,0,60.18,40Z"/><path class="cls-52" d="M60.18,40.07a5.67,5.67,0,0,0-5.69,5.38A5.23,5.23,0,0,0,59.65,51a5.67,5.67,0,0,0,5.69-5.39A5.22,5.22,0,0,0,60.18,40.07Z"/><path class="cls-53" d="M60.18,40.11a5.63,5.63,0,0,0-5.64,5.34,5.17,5.17,0,0,0,5.11,5.49A5.64,5.64,0,0,0,65.3,45.6,5.19,5.19,0,0,0,60.18,40.11Z"/><ellipse class="cls-54" cx="59.92" cy="45.53" rx="5.45" ry="5.26" transform="translate(-13.6 61.57) rotate(-49.54)"/><path class="cls-55" d="M60.17,40.21a5.54,5.54,0,0,0-5.54,5.24,5.1,5.1,0,0,0,5,5.4A5.53,5.53,0,0,0,65.2,45.6,5.09,5.09,0,0,0,60.17,40.21Z"/><ellipse class="cls-56" cx="59.92" cy="45.53" rx="5.35" ry="5.16" transform="translate(-13.6 61.57) rotate(-49.54)"/><path class="cls-57" d="M60.17,40.3a5.43,5.43,0,0,0-5.44,5.15,5,5,0,0,0,4.93,5.3A5.42,5.42,0,0,0,65.1,45.6,5,5,0,0,0,60.17,40.3Z"/><path class="cls-58" d="M60.17,40.35a5.38,5.38,0,0,0-5.39,5.1,5,5,0,0,0,4.89,5.25,5.38,5.38,0,0,0,5.39-5.1A5,5,0,0,0,60.17,40.35Z"/><path class="cls-59" d="M60.16,40.4a5.33,5.33,0,0,0-5.34,5.06,4.91,4.91,0,0,0,4.85,5.19,5.33,5.33,0,0,0,5.34-5A4.91,4.91,0,0,0,60.16,40.4Z"/><path class="cls-60" d="M60.16,40.45a5.28,5.28,0,0,0-5.29,5,4.87,4.87,0,0,0,4.8,5.15,5.28,5.28,0,0,0,5.29-5A4.85,4.85,0,0,0,60.16,40.45Z"/><ellipse class="cls-61" cx="59.92" cy="45.53" rx="5.11" ry="4.93" transform="translate(-13.6 61.57) rotate(-49.54)"/><path class="cls-62" d="M60.16,40.54A5.19,5.19,0,0,0,55,45.46a4.76,4.76,0,0,0,4.71,5,5.18,5.18,0,0,0,5.19-4.91A4.78,4.78,0,0,0,60.16,40.54Z"/><ellipse class="cls-63" cx="59.92" cy="45.53" rx="5.01" ry="4.83" transform="translate(-13.6 61.58) rotate(-49.55)"/><path class="cls-64" d="M60.15,40.64a5.08,5.08,0,0,0-5.09,4.82,4.67,4.67,0,0,0,4.62,4.95,5.07,5.07,0,0,0,5.09-4.81A4.68,4.68,0,0,0,60.15,40.64Z"/><path class="cls-65" d="M60.15,40.69a5,5,0,0,0-5,4.77,4.64,4.64,0,0,0,4.57,4.91,5,5,0,0,0,5-4.77A4.62,4.62,0,0,0,60.15,40.69Z"/><path class="cls-66" d="M60.15,40.74a5,5,0,0,0-5,4.72,4.58,4.58,0,0,0,4.52,4.86,5,5,0,0,0,5-4.73A4.58,4.58,0,0,0,60.15,40.74Z"/><path class="cls-67" d="M60.15,40.78a4.94,4.94,0,0,0-4.95,4.68,4.55,4.55,0,0,0,4.49,4.81,4.93,4.93,0,0,0,4.94-4.68A4.54,4.54,0,0,0,60.15,40.78Z"/><ellipse class="cls-68" cx="59.92" cy="45.53" rx="4.76" ry="4.6" transform="translate(-13.6 61.58) rotate(-49.54)"/><ellipse class="cls-69" cx="59.92" cy="45.53" rx="4.72" ry="4.55" transform="translate(-13.6 61.58) rotate(-49.55)"/><path class="cls-70" d="M60.14,40.93a4.77,4.77,0,0,0-4.79,4.53,4.4,4.4,0,0,0,4.34,4.67,4.8,4.8,0,0,0,4.8-4.54A4.4,4.4,0,0,0,60.14,40.93Z"/><path class="cls-71" d="M60.14,41a4.73,4.73,0,0,0-4.75,4.48,4.37,4.37,0,0,0,4.31,4.62,4.73,4.73,0,0,0,4.74-4.49A4.35,4.35,0,0,0,60.14,41Z"/><path class="cls-72" d="M60.13,41a4.69,4.69,0,0,0-4.69,4.44A4.31,4.31,0,0,0,59.7,50a4.67,4.67,0,0,0,4.69-4.44A4.31,4.31,0,0,0,60.13,41Z"/><path class="cls-73" d="M60.13,41.07a4.63,4.63,0,0,0-4.64,4.39A4.26,4.26,0,0,0,59.7,50a4.62,4.62,0,0,0,4.64-4.39A4.26,4.26,0,0,0,60.13,41.07Z"/><path class="cls-74" d="M60.13,41.12a4.58,4.58,0,0,0-4.59,4.35,4.22,4.22,0,0,0,4.16,4.47,4.6,4.6,0,0,0,4.6-4.35A4.22,4.22,0,0,0,60.13,41.12Z"/><path class="cls-75" d="M60.13,41.17a4.52,4.52,0,0,0-4.54,4.3,4.17,4.17,0,0,0,4.12,4.42,4.54,4.54,0,0,0,4.54-4.3A4.17,4.17,0,0,0,60.13,41.17Z"/><ellipse class="cls-76" cx="59.92" cy="45.53" rx="4.38" ry="4.22" transform="translate(-13.6 61.58) rotate(-49.55)"/><path class="cls-77" d="M60.12,41.26a4.43,4.43,0,0,0-4.44,4.21,4.08,4.08,0,0,0,4,4.32,4.43,4.43,0,0,0,4.44-4.2A4.08,4.08,0,0,0,60.12,41.26Z"/><path class="cls-78" d="M60.12,41.31a4.38,4.38,0,0,0-4.39,4.16,4,4,0,0,0,4,4.27,4.38,4.38,0,0,0,4.4-4.15A4,4,0,0,0,60.12,41.31Z"/><path class="cls-79" d="M60.12,41.36a4.33,4.33,0,0,0-4.34,4.11,4,4,0,0,0,3.93,4.23,4.34,4.34,0,0,0,4.35-4.11A4,4,0,0,0,60.12,41.36Z"/><path class="cls-80" d="M60.12,41.41a4.29,4.29,0,0,0-4.3,4.06,4,4,0,0,0,3.9,4.18A4.28,4.28,0,0,0,64,45.59,3.94,3.94,0,0,0,60.12,41.41Z"/><path class="cls-81" d="M60.11,41.45a4.24,4.24,0,0,0-4.24,4,3.89,3.89,0,0,0,3.85,4.13,4.24,4.24,0,0,0,4.24-4A3.9,3.9,0,0,0,60.11,41.45Z"/><path class="cls-82" d="M60.11,41.5a4.19,4.19,0,0,0-4.19,4,3.85,3.85,0,0,0,3.8,4.08,4.17,4.17,0,0,0,4.19-4A3.85,3.85,0,0,0,60.11,41.5Z"/><path class="cls-83" d="M60.11,41.55A4.13,4.13,0,0,0,56,45.47a3.79,3.79,0,0,0,3.75,4,4.13,4.13,0,0,0,4.15-3.92A3.81,3.81,0,0,0,60.11,41.55Z"/><path class="cls-84" d="M60.11,41.6A4.09,4.09,0,0,0,56,45.47a3.77,3.77,0,0,0,3.72,4,4.09,4.09,0,0,0,4.09-3.88A3.76,3.76,0,0,0,60.11,41.6Z"/><path class="cls-85" d="M60.1,41.65a4,4,0,0,0-4,3.82,3.72,3.72,0,0,0,3.67,3.94,4,4,0,0,0,4-3.83A3.71,3.71,0,0,0,60.1,41.65Z"/><path class="cls-86" d="M60.1,41.69a4,4,0,0,0-4,3.78,3.67,3.67,0,0,0,3.62,3.89,4,4,0,0,0,4-3.78A3.66,3.66,0,0,0,60.1,41.69Z"/></g><path class="cls-5" d="M74.28,38.88c-1.79-.79-4.46,1-6,4s-1.27,6.1.51,6.88,4.46-1,6-4S76.06,39.66,74.28,38.88Z"/><path class="cls-3" d="M69,49.85c1.78.64,4.35-1.15,5.82-4.09a9.65,9.65,0,0,0,.78-2.15,1.49,1.49,0,0,0,0-.21c-.39,1-4,7-7.62,3.1,0,2.49-.7,6.26-4.41,11.06-3,3.85-9.17,5.12-13.72,4.94C39,62.08,36.23,58.73,34.15,54.21h0q.12.43.27.87l0,.08c.09.28.2.57.31.84l0,.09c.12.28.24.56.38.83v0q.21.42.45.84h0a9.21,9.21,0,0,0,.49.78l.06.09q.26.38.54.72l.08.1c.2.24.4.47.62.69l.06.06c.22.22.45.44.7.66l0,0c.25.21.5.41.77.6l.12.09c.26.19.53.36.81.53l.15.09c.29.17.59.33.91.48l.12.06c.32.15.66.3,1,.44h0l1.11.37.17,0c.37.11.76.2,1.15.29l.22,0c.41.08.82.16,1.25.22l.2,0c.46.06.92.11,1.41.15C63.19,65.46,67.9,59.05,69,49.85Z"/><path class="cls-87" d="M38.92,33s-.8,3.76-1,6.09l7.58,2.36S49.17,35,48.67,30.87l-7.18.33Z"/><path class="cls-3" d="M70.07,44.32l1.71.31a5.24,5.24,0,0,1,2.78-3.92C71.46,39.34,70.07,44.32,70.07,44.32Z"/><path class="cls-87" d="M55.52,30.93a12.2,12.2,0,0,0,.48,10l8.84-1.85A6.15,6.15,0,0,0,66,34.13C65.09,29.86,55.52,30.93,55.52,30.93Z"/><path class="cls-88" d="M60.94,37A5.49,5.49,0,0,0,56,40.82s.62,1,4.49.55c4-.44,4.35-2.3,4.35-2.3S64.17,36.71,60.94,37Z"/><path class="cls-88" d="M37.92,39.09s-.47.6,3.39,1.49c3.33.77,4.19.87,4.19.87S42.19,32.45,37.92,39.09Z"/><path class="cls-89" d="M40.62,40.42l.69.16c1.07.25,1.88.43,2.49.55a3.56,3.56,0,0,0,.24-.52,4,4,0,0,0,.25-1.55,10.56,10.56,0,0,0-.62-.87h0a5.93,5.93,0,0,0-.73-.77,3,3,0,0,0-2.11,2.11A4.21,4.21,0,0,0,40.62,40.42Z"/><path class="cls-90" d="M60.49,41.37c.26,0,.5-.06.73-.1a4.08,4.08,0,0,0,.19-.42c.52-1.43.22-2.84-.67-3.14s-2,.62-2.55,2.06A3.81,3.81,0,0,0,58,41.45,13.5,13.5,0,0,0,60.49,41.37Z"/><path class="cls-91" d="M41.83,36.3c-3.07-.38-3.91,2.79-3.91,2.79s.7-1.41,3.41-1.23,4.17,3.59,4.17,3.59S45.9,36.8,41.83,36.3Z"/><path class="cls-91" d="M38.92,33c4.38-2.95,7.76,1.18,9.44,0,.64-.46.31-2.1.31-2.1C40,28.93,38.92,33,38.92,33Z"/><path class="cls-91" d="M55.52,30.93a3.69,3.69,0,0,0,.41,1.83c1.33,1.65,6.8-2.47,10.14,1.62C66.07,34.38,65.25,28.36,55.52,30.93Z"/><path class="cls-91" d="M60.49,36.76A5.1,5.1,0,0,0,56,40.82s.89-2.2,4.72-2.54c3.52-.3,4.12.79,4.12.79S64.18,36.36,60.49,36.76Z"/><path class="cls-92" d="M50.13,51.56c-5.3-.08-7.41-1.51-8.1-2.15a.11.11,0,0,0-.17.11c.47,1.48,2.44,6.36,7.93,6.36,4.8,0,7.54-3.76,8.4-5.4a.21.21,0,0,0-.29-.28C56.93,50.77,54.64,51.63,50.13,51.56Z"/><path class="cls-88" d="M51,55.78c.2,0,.4-.06.6-.1L52,55.6a5.08,5.08,0,0,0,.52-.15l.3-.1.49-.2.26-.12c.18-.08.34-.17.51-.26l.19-.11a5.94,5.94,0,0,0,.59-.38l0,0a10.66,10.66,0,0,0,1.19-1h0A14.52,14.52,0,0,1,55.92,51a21.6,21.6,0,0,1-5.79.58l-1.08,0-.32,0c-.23,0-.47,0-.69-.06l-.31,0-.64-.08-.23,0A15.3,15.3,0,0,1,45.32,51h0c-.23-.06-.44-.12-.64-.19h0a9.89,9.89,0,0,1-1.08-.41q-.1,1-.27,2c.06.08.11.17.18.25l.13.18c.09.12.19.24.29.35l.12.15.39.41.13.12.46.4.07,0c.16.13.32.24.5.36l.12.08c.19.12.39.23.59.33l.13.07c.22.1.44.2.68.29h0c.23.08.48.15.73.21l.14,0a6.85,6.85,0,0,0,.79.13l.16,0a8.53,8.53,0,0,0,.89.05c.33,0,.64,0,1-.05Z"/><path class="cls-93" d="M48.73,51.5c-.23,0-.47,0-.69-.06l-.31,0-.64-.08-.23,0A15.3,15.3,0,0,1,45.32,51h0c-.23-.06-.44-.12-.64-.19h0a9.89,9.89,0,0,1-1.08-.41q-.1,1-.27,2l.1.14.2.28.1.12.27.33c.15-.1.29-.19.44-.27,1.57-1.09,10-1.24,11,.85.22-.18.44-.36.64-.55h0A14.52,14.52,0,0,1,55.92,51a21.6,21.6,0,0,1-5.79.58l-1.08,0Z"/><path class="cls-92" d="M57.93,49.75v0Z"/><path class="cls-94" d="M54.1,10.91C32.25,10.91,34.35,41,34.35,41,35.66,33.43,40,19.38,45.1,19.6A11.65,11.65,0,0,0,51.9,22c3.69.08,8.91-2.63,8.91-2.63,6.34.12,7.21,13,7.38,22.21,0,2.12,2.32-1.52,2.32-1.52S74.53,10.92,54.1,10.91Z"/><path class="cls-95" d="M62.8,12.49Z"/><path class="cls-95" d="M62.82,12.29Z"/><path class="cls-95" d="M62.75,12.49h0Z"/><path class="cls-5" d="M49,38.07s.4,5-2.09,5.4-4.54,4.39,3.24,4.39c7.44,0,5.82-3.49,3.54-4s-.81-5.77-.81-5.77Z"/><path class="cls-96" d="M51.08,38.07H49s.4,5-2.09,5.4a3,3,0,0,0-2,1.29,17,17,0,0,0,4.92.76A17.21,17.21,0,0,0,51.08,38.07Z"/><path class="cls-3" d="M44.69,45.62c0,1.11,1.34,2.24,5.48,2.24,3.94,0,5.33-1,5.43-2C51.34,46.59,47.9,46.74,44.69,45.62Z"/><path class="cls-97" d="M67.86,29a2.14,2.14,0,0,1,.14-.58v0a2.56,2.56,0,0,1,.52-1.33,56.83,56.83,0,0,0-1.06-6.29C67.18,18.53,65,16.68,62,15.5l-14.35-.41a12.36,12.36,0,0,0-6.72,5c-.76,1.69-1.7,3.93-2.65,6.51,2.55.15,18.74.83,23.69-4.94,0,0,.94,6,5.61,8Z"/><path class="cls-98" d="M48.35,57.28a8.49,8.49,0,0,0,3-.05.9.9,0,0,1,1,1.19c-.23.61-.9,1.17-2.58,1.17-1.42,0-2.1-.38-2.4-.85A1,1,0,0,1,48.35,57.28Z"/><path class="cls-88" d="M42.45,39.44c0,.27-.48.51-1.1.56s-1.12-.14-1.13-.41.48-.51,1.1-.55S42.44,39.18,42.45,39.44Z"/><path class="cls-88" d="M59.77,39.79c.12.29-.31.74-1,1s-1.25.26-1.36,0,.31-.75.95-1S59.66,39.5,59.77,39.79Z"/><path class="cls-99" d="M33.82,24.66A65.82,65.82,0,0,1,34.44,35,61.51,61.51,0,0,1,34,42.37s2.66-13.23,6.5-17.88c3.31-4-5.76-1.42-5.76-1.42Z"/><path class="cls-94" d="M68.12,13.1c-4,4-16.48-14.44-27.75-6.32-9,6.46-8.87,18.32-8.87,18.32s24,2.71,31-5.41c0,0,1.67,7.17,5,10C68.72,30.73,73,14.13,68.12,13.1Z"/><path class="cls-94" d="M68.09,13.13c-.34,1.2-3.26,1.29-4.41,1.83l2,.91,4.83,23.42S72,25.16,75.29,18.84C75.29,18.84,72.24,12.39,68.09,13.13Z"/><path class="cls-99" d="M62.5,19.69s1.67,7.17,5,10c-2.09-1.9-3.92-12.78-3.92-12.78a27,27,0,0,1-11.9,5.62c-5.57,1.18-13.54-1.88-16.4-1.52S31.5,25.1,31.5,25.1,55.49,27.81,62.5,19.69Z"/><path class="cls-94" d="M68.68,11.87c-1.35.21-1.68.84-1.68.84a6.48,6.48,0,0,0,.44-4.17C64.78,10,65,12.14,65,12.14c-1.19-2.7-5.09-3.53-5.09-3.53,0,2.22,2.33,4.49,2.45,4.56l1.94,3.13,4.25-.66-.35-1.9A2.39,2.39,0,0,0,68.68,11.87Z"/><path class="cls-95" d="M70.55,15.88a15.71,15.71,0,0,1,2.66.72c.36.13.7.26,1,.4a12.49,12.49,0,0,0-2.32-2.64l-.83-.3a14.18,14.18,0,0,0-3.62-.7,14.39,14.39,0,0,0-2.07,0c-.38,0-.65.06-1,.09s-.6.07-.9.08a10.91,10.91,0,0,1-3.63-.38,14.8,14.8,0,0,1-3.5-1.49C55.18,11,54.08,10.24,53,9.46s-2.25-1.61-3.43-2.35c-.6-.36-1.17-.71-1.82-1l-.43-.22-.23-.12-.26-.11c-.34-.15-.69-.27-1-.39A9.27,9.27,0,0,0,44.3,5a10.9,10.9,0,0,0-3.93,1.83A19,19,0,0,0,37,9.92l.64-.34A11,11,0,0,1,42,8.23a7.06,7.06,0,0,1,2.64.37c.22.09.45.17.68.28l.17.08.19.09.41.21c.49.25,1,.56,1.57.89,1.07.66,2.18,1.41,3.34,2.19a37.88,37.88,0,0,0,3.77,2.24,16.39,16.39,0,0,0,4.34,1.56,13.79,13.79,0,0,0,4.57.11c.37,0,.73-.11,1.08-.18l.93-.2a16.09,16.09,0,0,1,1.7-.2A15.07,15.07,0,0,1,70.55,15.88Z"/><path class="cls-100" d="M14.75,87.18A51.46,51.46,0,0,0,30.17,97.92c1.42-3.15,2.75-5.8,3.74-7.58l2.91-20.41C36.41,70.68,24.38,70.06,14.75,87.18Z"/><path class="cls-3" d="M67.65,81.23l.57-11.89c-9.5-2.85-22.66-2.82-32.17,1.08l-.52,10.81Z"/><path class="cls-100" d="M71.86,70.26h0c-.38-.16-.77-.29-1.18-.42l-.17,0c-.43-.13-.87-.25-1.33-.35l-.29-.08-1.56-.43C66,74.3,58.26,77.11,53.44,77.25c-6.43.19-13-2.17-16.17-7.85-4,1.15-8.59,3.28-10.42,5-3.53,3.3-4.44,9.8-5,18.81a51.2,51.2,0,0,0,57.89.56c.15-2.73.28-5.26.39-7.49C80.24,84.6,81,73.94,71.86,70.26Z"/><path class="cls-100" d="M91.54,82.8a26.47,26.47,0,0,0-6.44-6.49c-10-7-18.48-7.57-18.48-7.57,1.53,3.93,3.45,16.81,6.61,28.75A51.33,51.33,0,0,0,91.54,82.8Z"/><path class="cls-101" d="M39.08,68s1.66,7.43,12.71,7.19,13.27-7.46,13.27-7.46l5.22,1S68.15,79.23,51.16,79.25c-16.07,0-16.68-9.83-16.68-9.83Z"/></g></g></svg>