<?xml version="1.0" encoding="utf-8"?>
<!-- Generator: Adobe Illustrator 23.0.4, SVG Export Plug-In . SVG Version: 6.00 Build 0)  -->
<svg version="1.1" id="Layer_1" xmlns="http://www.w3.org/2000/svg" xmlns:xlink="http://www.w3.org/1999/xlink" x="0px" y="0px"
	 viewBox="0 0 97 96.7" style="enable-background:new 0 0 97 96.7;" xml:space="preserve">
<style type="text/css">
	.st0{fill:#FFFFFF;}
	.st1{fill:#C90019;}
</style>
<g>
	<path class="st0" d="M53.4,0.3c24.3,2.5,43.3,23.1,43.3,48.1c0,26.7-21.6,48.3-48.3,48.4C21.7,96.7,0,75.1,0,48.4
		C0,21.7,21.6,0,48.3,0C50,0,51.7,0.1,53.4,0.3z M55.9,93.3c24.8-4.2,41.6-27.7,37.4-52.5C89.8,20.1,73,5.1,53.1,3
		c-4-0.4-8.2-0.3-12.3,0.4c-5,0.8-9.6,2.4-13.8,4.7c21.9,7.4,33.7,18.7,34.5,30.3c0.4,7.1-2.9,12.3-7.3,16.5l31-2.2
		c0.9-0.1,1.2,1,0.1,1.3L11.4,75.1c7.5,10.4,19.2,17.2,32.1,18.6C47.6,94.1,51.7,94,55.9,93.3z M35.6,49.4C39.6,34.2,35,18.2,24,9.8
		C8.9,19.3,0.2,37.2,3.4,55.9c1,6.2,3.3,11.8,6.4,16.8C21.6,69.4,31.9,63.2,35.6,49.4z"/>
	<path class="st1" d="M93.3,40.8c4.2,24.8-12.6,48.3-37.4,52.5c-4.2,0.7-8.3,0.8-12.3,0.4c-13-1.4-24.6-8.2-32.1-18.6l73.8-21.2
		c1.1-0.3,0.8-1.3-0.1-1.3l-31,2.2c4.4-4.2,7.7-9.4,7.3-16.5C60.7,26.8,48.9,15.5,27,8.1c4.2-2.2,8.8-3.8,13.8-4.7
		C45,2.7,49.1,2.6,53.1,3C73,5.1,89.8,20.1,93.3,40.8z M3.4,55.9c1,6.2,3.3,11.8,6.4,16.8c11.8-3.3,22.1-9.5,25.8-23.3
		C39.6,34.2,35,18.2,24,9.8C8.9,19.3,0.2,37.2,3.4,55.9z"/>
</g>
</svg>
