<svg width="1074" height="370" viewBox="0 0 1074 370" fill="none" xmlns="http://www.w3.org/2000/svg">
<g filter="url(#filter0_d)">
<path d="M1062 311.711V59.3113C1062 58.0113 1061.1 56.8113 1059.9 56.4113C1039.9 50.3113 1025.1 32.5113 1023.5 10.9113C1023.4 9.31133 1022.1 8.11133 1020.5 8.11133H55.9C54.3 8.11133 53 9.31133 52.9 10.9113C51.2 33.2113 35.3 51.6113 14.3 57.0113C12.9 57.3113 12 58.5113 12 59.9113V311.111C12 312.511 12.9 313.711 14.2 314.011C32.3 318.611 46.5 332.811 51.3 350.811C51.6 352.111 52.8 353.011 54.2 353.011H1022.1C1023.5 353.011 1024.7 352.111 1025 350.811C1029.5 333.511 1042.8 319.711 1059.9 314.611C1061.1 314.211 1062 313.111 1062 311.711Z" fill="#F5F5F5"/>
<path d="M1059.9 56.4113C1039.9 50.3113 1025.1 32.5113 1023.5 10.9113C1023.4 9.31133 1022.1 8.11133 1020.5 8.11133H55.9C54.3 8.11133 53 9.31133 52.9 10.9113C51.2 33.2113 35.3 51.6113 14.3 57.0113C12.9 57.3113 12 58.5113 12 59.9113V311.111C12 312.511 12.9 313.711 14.2 314.011C32.3 318.611 46.5 332.811 51.3 350.811C51.6 352.111 52.8 353.011 54.2 353.011H1022.1C1023.5 353.011 1024.7 352.111 1025 350.811C1029.5 333.511 1042.8 319.711 1059.9 314.611M1059.9 56.4113L1059.74 56.8857C1059.74 56.8863 1059.75 56.887 1059.75 56.8877M1059.9 56.4113L1059.75 56.8896C1059.75 56.889 1059.75 56.8883 1059.75 56.8877M1059.9 56.4113C1061.1 56.8113 1062 58.0113 1062 59.3113V311.711C1062 313.111 1061.1 314.211 1059.9 314.611M1059.75 56.8877C1039.56 50.7271 1024.62 32.7565 1023 10.9483L1023 10.9425C1022.92 9.61051 1021.84 8.61133 1020.5 8.61133H55.9C54.5595 8.61133 53.4823 9.61051 53.399 10.9425L53.3986 10.9493L53.3986 10.9493C51.682 33.4661 35.6287 52.0431 14.4245 57.4956L14.4147 57.4981L14.4048 57.5002C13.2495 57.7478 12.5 58.7323 12.5 59.9113V311.111C12.5 312.3 13.2594 313.281 14.3124 313.524L14.3232 313.527C32.6009 318.172 46.937 332.51 51.7831 350.682L51.7853 350.691L51.7872 350.699C52.0302 351.752 53.0115 352.511 54.2 352.511H1022.1C1023.29 352.511 1024.27 351.752 1024.51 350.699L1024.52 350.685C1029.06 333.219 1042.49 319.286 1059.75 314.134M1059.75 56.8877C1060.75 57.2236 1061.5 58.2346 1061.5 59.3113V311.711C1061.5 312.878 1060.76 313.795 1059.75 314.134M1059.75 314.134C1059.75 314.135 1059.74 314.136 1059.74 314.137L1059.9 314.611M1059.75 314.134C1059.75 314.134 1059.75 314.133 1059.76 314.132L1059.9 314.611" stroke="#C7C7C7"/>
</g>
<defs>
<filter id="filter0_d" x="0" y="0.111328" width="1074" height="368.9" filterUnits="userSpaceOnUse" color-interpolation-filters="sRGB">
<feFlood flood-opacity="0" result="BackgroundImageFix"/>
<feColorMatrix in="SourceAlpha" type="matrix" values="0 0 0 0 0 0 0 0 0 0 0 0 0 0 0 0 0 0 127 0"/>
<feOffset dy="4"/>
<feGaussianBlur stdDeviation="6"/>
<feColorMatrix type="matrix" values="0 0 0 0 0 0 0 0 0 0 0 0 0 0 0 0 0 0 0.08 0"/>
<feBlend mode="normal" in2="BackgroundImageFix" result="effect1_dropShadow"/>
<feBlend mode="normal" in="SourceGraphic" in2="effect1_dropShadow" result="shape"/>
</filter>
</defs>
</svg>
